<svg width="693" height="880" viewBox="0 0 693 880" fill="none" xmlns="http://www.w3.org/2000/svg">
<g clip-path="url(#clip0_264_1193)">
<path d="M349.622 419.985C351.356 420.986 353.61 422.177 356.325 423.473C364.111 427.189 375.538 431.691 389.089 434.976C415.992 441.498 450.917 443.147 482.409 424.792C482.458 424.612 482.514 424.407 482.576 424.176C482.854 423.142 483.258 421.609 483.756 419.623C484.752 415.652 486.124 409.872 487.625 402.661C490.626 388.237 494.136 368.1 496.17 345.26C500.247 299.473 498.35 243.269 474.992 200.334C455.716 164.906 427.011 143.569 396.804 133.647C394.55 138.952 390.324 147.603 384.057 155.165C376.876 163.83 366.64 171.488 353.32 170.322C345.498 169.65 340.296 166.533 337.163 161.948C334.109 157.478 333.259 151.957 333.342 146.853C333.425 141.718 334.457 136.723 335.447 133.053C335.944 131.208 336.437 129.675 336.807 128.599C336.847 128.483 336.885 128.373 336.922 128.268C329.982 129.565 320.595 132.914 311.845 136.769C306.941 138.93 302.311 141.217 298.523 143.326C294.677 145.467 291.875 147.329 290.487 148.621L290.364 148.736L349.622 419.985ZM349.622 419.985C408.327 406.214 440.904 380.698 458.843 358.147C468.053 346.57 473.366 335.822 476.381 327.935C477.889 323.992 478.822 320.763 479.38 318.503C479.66 317.372 479.846 316.483 479.963 315.868C479.999 315.679 480.029 315.516 480.053 315.379C480.068 315.293 480.08 315.218 480.091 315.153C480.105 315.069 480.115 315.004 480.122 314.956L480.131 314.9L480.133 314.882L480.134 314.876C480.135 314.873 480.135 314.871 477.691 314.529L480.135 314.871L480.227 314.211L479.975 313.594C467.298 282.621 443.558 272.057 423.147 269.304C412.984 267.933 403.635 268.489 396.839 269.38C393.436 269.826 390.66 270.359 388.726 270.782C387.758 270.993 387.001 271.178 386.479 271.311C386.218 271.378 386.017 271.432 385.877 271.47C385.857 271.475 385.838 271.48 385.821 271.485C385.777 271.497 385.742 271.507 385.715 271.514L385.67 271.527L385.657 271.531L385.652 271.532C385.651 271.533 385.649 271.533 386.333 273.904L385.649 271.533L383.908 272.036L383.867 273.848C382.928 315.106 358.019 336.873 333.007 348.453C320.478 354.254 307.979 357.459 298.594 359.212C293.906 360.087 290.01 360.598 287.294 360.889C286.466 360.978 285.747 361.046 285.15 361.098C282.271 347.403 280.85 325.899 280.162 307.281C279.801 297.533 279.643 288.642 279.576 282.188C279.542 278.961 279.53 276.345 279.527 274.536C279.526 273.632 279.527 272.93 279.528 272.454C279.528 272.216 279.529 272.035 279.529 271.914L279.53 271.777L279.53 271.743L279.53 271.735L279.53 271.733C279.53 271.733 279.53 271.732 277.063 271.719L279.53 271.732L279.537 270.438L278.477 269.696C263.01 258.883 253.348 255.5 247.305 255.045C245.691 254.924 244.323 255.011 243.168 255.227C248.279 215.494 259.848 189.053 270.212 172.485C275.587 163.892 280.648 157.939 284.335 154.156C286.179 152.263 287.68 150.913 288.706 150.045C289.219 149.612 289.613 149.299 289.872 149.099C290.001 148.999 290.097 148.928 290.157 148.884C290.186 148.862 290.207 148.847 290.219 148.838L290.226 148.833L290.228 148.831L290.23 148.831L349.622 419.985Z" fill="white" stroke="#00160A" stroke-width="4.935"/>
<path d="M491.543 389.725L649.41 494.189C680.023 514.443 676.086 560.543 642.512 575.312L457.766 656.62C422.824 671.994 382.395 668.039 351.097 646.184L280.148 596.582" stroke="#00160A" stroke-width="4.15527"/>
<path d="M491.543 423.414L486.233 419.893L649.438 527.858C680.052 548.113 676.115 594.212 642.542 608.983L457.795 690.291C422.854 705.664 382.424 701.709 351.125 679.854L260.918 615.608" stroke="#00160A" stroke-width="4.15527"/>
<path d="M628.922 569.547L459.12 644.288C427.007 658.413 389.853 654.775 361.088 634.692L296.02 588.98C304.979 582.114 315.018 576.786 325.725 573.214C352.547 564.103 378.723 553.19 404.073 540.549C443.036 521.274 471.365 485.62 481.338 443.311C484.742 428.85 487.731 414.225 490.179 399.522L639.62 498.308C667.748 516.919 659.768 555.987 628.922 569.547Z" fill="#64FCD9"/>
<path d="M191.382 786.156C191.382 786.156 221.155 773.813 226.862 764.508C226.862 764.508 227.935 785.633 222.364 792.849C216.793 800.065 183.499 819.139 181.71 816.75C179.92 814.36 191.382 786.156 191.382 786.156Z" fill="#1E3227"/>
<path d="M99.7343 836.492C99.7343 836.492 105.151 843.843 124.371 836.492C143.59 829.141 185.405 802.066 185.405 802.066C185.405 802.066 173.74 833.387 169.512 836.83C165.286 840.273 85.4287 879.39 85.4287 879.39C85.4287 879.39 49.727 884.468 63.1818 859.077L99.7343 836.492Z" fill="#1E3227"/>
<path d="M214.664 427.264C170.653 444.394 124.08 484.641 137.476 596.099L141.2 625.059" stroke="#00160A" stroke-width="4.15527"/>
<path d="M214.596 354.478C221.793 344.205 228.293 333.101 232.278 321.146C236.263 309.19 236.466 296.239 237.579 283.664C240.538 249.945 245.123 222.06 258.133 190.652C269.402 163.472 303.439 128.458 337.303 125.14L340.35 124.879" stroke="#00160A" stroke-width="4.15527"/>
<path d="M299.715 424.798C299.551 424.323 299.386 423.879 299.212 423.414" stroke="#00160A" stroke-width="4.15527"/>
<path d="M283.204 361.626C281.541 351.846 280.302 342.367 279.335 333.372C279.338 333.202 279.318 333.033 279.278 332.868C274.208 282.639 279.335 246.095 279.335 246.095" stroke="#00160A" stroke-width="4.15527"/>
<path d="M401.51 56.7639L393.772 59.7822C393.772 60.024 393.772 63.0413 393.443 67.2686C393.083 72.3171 392.28 77.3241 391.043 82.2325C391.73 78.8856 392.726 70.9343 388.355 65.4022C388.287 65.2887 388.21 65.1821 388.123 65.0824C385.221 61.5904 381.642 62.9741 378.769 65.3725C376.785 67.0514 375.052 69.0057 373.623 71.1761C374.124 64.7142 372.966 58.2316 370.257 52.3442C368.491 48.327 366.148 44.5895 363.303 41.2492C367.684 56.3385 362.064 66.2145 362.064 66.2145C347.217 69.7065 336.915 68.9613 329.236 67.6357C322.765 61.6002 325.009 39.866 325.009 39.866C318.499 45.1859 320.066 65.7693 320.066 65.7693C319.235 60.3981 319.336 54.9242 320.366 49.587C317.133 54.1602 315.265 59.5571 314.978 65.1505L314.862 65.0922C314.414 64.9768 313.972 64.8386 313.537 64.6767C312.74 64.2572 311.968 63.7924 311.226 63.2831L306.94 60.3813C313.411 27.369 336.036 6.6116 370.993 12.7053C373.275 13.0987 375.52 13.681 377.705 14.4464C400.736 26.4501 401.51 56.7639 401.51 56.7639Z" fill="white"/>
<path d="M202.022 378.281L193.21 351.76C192.814 350.503 191.797 349.542 190.522 349.215C190.444 349.215 190.357 349.215 190.27 349.157C190.183 349.1 190.163 349.157 190.105 349.157C189.903 349.144 189.699 349.144 189.496 349.157C188.519 349.161 187.578 349.534 186.865 350.202C185.419 351.538 184.595 353.417 184.592 355.387C184.593 356.149 184.713 356.906 184.95 357.63C186.885 363.23 190.328 373.338 191.963 377.943" fill="#64FCD9"/>
<path d="M200.029 378.281L190.53 349.215C190.454 349.215 190.367 349.215 190.28 349.157C190.192 349.1 190.173 349.157 190.115 349.157L185.134 348.19C182.474 347.697 179.814 347.165 177.154 346.672C173.962 346.033 170.75 345.501 167.568 344.737C166.817 344.525 166.045 344.395 165.266 344.35C164.285 344.347 163.343 344.725 162.635 345.404C161.175 346.74 160.35 348.63 160.362 350.608C160.357 351.361 160.478 352.11 160.72 352.824C162.858 359.091 166.929 370.95 168.226 374.547L200.029 378.281Z" fill="#64FCD9"/>
<path d="M387.833 246.086C386.865 256.852 386.363 269.881 386.025 286.256C386.025 321.078 347.528 349.912 313.315 356.508L250.579 370.678C242.29 372.284 234.947 367.109 229.183 363.676C223.253 360.145 217.179 355.937 212.904 352.814C206.752 348.316 194.903 351.933 197.331 362.66C198.392 366.794 201.321 370.197 205.253 371.859C206.345 372.348 207.469 372.762 208.619 373.096C209.499 373.318 210.121 374.102 210.134 375.009C210.148 375.916 209.55 376.719 208.677 376.965C203.241 378.843 193.288 379.955 177.232 374.064C156.658 366.49 155.062 413.441 183.19 421.614H183.296C209.209 429.449 237.095 428.443 263.878 427.321C294.293 426.169 324.557 422.477 354.356 416.285C369.513 413.074 385.086 409.737 398.956 402.879C422.848 391.069 440.065 377.527 456.441 356.451C474.819 332.82 482.663 301.819 487.093 272.753C492.162 239.499 485.159 211.419 467.332 182.798L466.674 181.754" stroke="#00160A" stroke-width="4.15527"/>
<path d="M202.022 378.281L193.21 351.76C192.814 350.503 191.797 349.542 190.522 349.215C190.444 349.215 190.357 349.215 190.27 349.157C190.183 349.1 190.163 349.157 190.105 349.157C189.903 349.144 189.699 349.144 189.496 349.157C188.519 349.161 187.578 349.534 186.865 350.202C185.419 351.538 184.595 353.417 184.592 355.387C184.593 356.149 184.713 356.906 184.95 357.63C186.885 363.23 190.328 373.338 191.963 377.943" stroke="#00160A" stroke-width="4.15527"/>
<path d="M190.531 349.215C190.453 349.215 190.367 349.215 190.28 349.157C190.193 349.1 190.173 349.157 190.115 349.157L185.134 348.19C182.474 347.697 179.814 347.165 177.154 346.672C173.962 346.033 170.751 345.501 167.569 344.737C166.818 344.525 166.046 344.395 165.266 344.35C164.286 344.347 163.343 344.725 162.636 345.404C161.176 346.74 160.35 348.63 160.363 350.608C160.358 351.361 160.478 352.11 160.72 352.824C162.858 359.091 166.93 370.95 168.226 374.547" stroke="#00160A" stroke-width="4.15527"/>
<path d="M311.971 64.2021C311.971 76.7765 314.418 88.8002 320.454 99.9039C325.29 108.822 332.39 117.808 342.546 120.758C344.797 121.408 347.129 121.733 349.472 121.725C366.708 121.649 369.398 101.229 369.398 101.229" stroke="#00160A" stroke-width="4.15527"/>
<path d="M392.862 71.4958V71.5531C392.064 77.7929 390.691 83.9449 388.762 89.931C386.457 97.073 385.912 104.665 387.175 112.063L389.855 127.645C390.104 129.062 391.141 130.211 392.524 130.604C426.533 140.48 456.721 162.273 474.287 193.738C496.195 233.028 500.19 280.346 498.42 324.453C496.863 362.689 490.682 400.703 481.909 437.913C471.051 483.958 440.218 522.76 397.815 543.741C370.256 557.502 341.795 569.378 312.628 579.288C281.361 589.642 256.418 613.527 244.718 644.316L176.177 826.568C173.659 833.296 168.69 838.823 162.268 842.044L96.5907 875.037C88.297 879.189 78.8366 880.389 69.769 878.441C64.9574 877.403 61.2719 873.527 60.4774 868.67C59.6829 863.812 61.9411 858.963 66.1704 856.446L99.7156 836.492L145.844 601.331C152.413 558.874 177.225 521.415 213.756 498.802C216.162 497.335 218.67 496.042 221.262 494.933L321.257 451.513" stroke="#00160A" stroke-width="4.15527"/>
<path d="M365.374 10.4325C360.028 9.15834 354.494 8.87636 349.046 9.60062C348.823 9.60555 348.6 9.6249 348.378 9.65865" stroke="#00160A" stroke-width="4.15527"/>
<path d="M341.153 125.449C341.153 125.449 323.462 166.006 355.101 168.009C383.49 169.827 393.908 131.253 393.908 131.253" stroke="#00160A" stroke-width="4.15527"/>
<path fill-rule="evenodd" clip-rule="evenodd" d="M390.638 83.7119C390.841 82.9677 393.888 71.9696 388.065 65.0438C382.242 58.118 374.349 69.9966 373.556 71.1859C375.103 54.1335 363.254 41.201 363.254 41.201C367.627 56.3 361.997 66.166 361.997 66.166C340.36 71.2343 328.453 67.3751 320.008 65.711C319.178 60.3427 319.283 54.8718 320.318 49.5387C317.076 54.1 315.206 59.4939 314.93 65.0823H314.795C311.58 64.2286 308.533 62.8389 305.78 60.9715L301.495 58.0697C307.976 25.0671 330.591 4.29033 365.547 10.3841C400.504 16.4778 401.481 56.677 401.481 56.677L393.694 59.7051C393.694 59.7051 393.762 72.9754 390.638 83.7119Z" stroke="#00160A" stroke-width="4.15527"/>
<path d="M325.531 81.9907V98.0374C325.534 98.4332 325.726 98.8043 326.046 99.0372C326.366 99.2701 326.779 99.3373 327.157 99.2168C328.418 98.7993 329.579 98.1203 330.561 97.2251" stroke="#00160A" stroke-width="4.15527"/>
<path d="M315.935 94.1728C320.997 92.1993 322.876 84.8943 320.132 77.8567C317.388 70.819 311.061 66.7137 305.999 68.6872C300.937 70.6607 299.058 77.9656 301.802 85.0033C304.546 92.0409 310.874 96.1463 315.935 94.1728Z" stroke="#00160A" stroke-width="4.15527"/>
<path d="M346.395 98.7616C351.457 96.7882 353.336 89.4832 350.592 82.4455C347.848 75.4079 341.521 71.3026 336.459 73.276C331.397 75.2495 329.518 82.5545 332.262 89.5922C335.006 96.6298 341.333 100.735 346.395 98.7616Z" stroke="#00160A" stroke-width="4.15527"/>
<path d="M321.275 82.8218C321.275 82.8218 324.274 79.3979 330.561 83.412" stroke="#00160A" stroke-width="4.15527"/>
<path d="M339.731 119.742C339.731 119.742 341.908 127.113 348.311 151.005" stroke="#00160A" stroke-width="4.15527"/>
<path d="M179.418 817.959L217.141 797.598C221.53 795.218 224.46 790.822 224.966 785.856C231.233 724.29 229.319 685.367 229.319 685.367" stroke="#00160A" stroke-width="4.15527"/>
<path d="M145.177 502.227L0 400.77" stroke="#00160A" stroke-width="4.15527"/>
<path d="M136.955 530.18L0 434.46" stroke="#00160A" stroke-width="4.15527"/>
<path d="M692.288 337.338V420.397C692.288 428.178 687.699 435.227 680.584 438.378L577.571 483.994L546.076 531.854C544.413 534.289 541.365 535.368 538.541 534.521C535.716 533.675 533.764 531.098 533.714 528.149V503.426L523.152 508.098C518.38 510.184 512.878 509.731 508.512 506.89C504.146 504.05 501.501 499.204 501.476 493.995V424.633C501.479 406.953 511.979 390.961 528.201 383.931L669.769 322.558C674.749 320.397 680.481 320.888 685.019 323.867C689.558 326.846 692.29 331.909 692.288 337.338Z" fill="#D7E8F0"/>
<path d="M565.922 445.898C570.996 436.109 569.623 425.33 562.855 421.822C556.087 418.314 546.487 423.405 541.413 433.194C536.339 442.983 537.712 453.763 544.48 457.271C551.248 460.779 560.848 455.687 565.922 445.898Z" fill="white"/>
<path d="M609.916 427.067C614.991 417.278 613.618 406.499 606.85 402.991C600.082 399.483 590.482 404.574 585.408 414.363C580.334 424.152 581.707 434.932 588.475 438.44C595.242 441.948 604.842 436.856 609.916 427.067Z" fill="white"/>
<path d="M652.431 406.733C657.505 396.944 656.132 386.165 649.365 382.657C642.597 379.148 632.997 384.24 627.923 394.029C622.849 403.818 624.222 414.598 630.989 418.106C637.757 421.614 647.357 416.522 652.431 406.733Z" fill="white"/>
<path d="M570.24 303.769L572.655 304.414L578.072 284.146C578.303 283.283 578.056 282.362 577.424 281.731C576.791 281.1 575.87 280.854 575.008 281.086L554.756 286.533H554.757L534.495 291.976C533.632 292.207 532.959 292.882 532.728 293.745C532.498 294.608 532.745 295.528 533.377 296.159L548.22 310.977L548.219 310.976L563.059 325.802C563.691 326.433 564.612 326.68 565.474 326.448C566.337 326.216 567.011 325.542 567.241 324.679L572.655 304.414L570.24 303.769L567.825 303.124L563.529 319.204L551.753 307.439L551.752 307.438L539.975 295.681L556.054 291.362H556.055L572.123 287.04L567.825 303.124L570.24 303.769Z" fill="#64FCD9"/>
<path d="M575.971 189.413H573.471C573.47 193.126 571.974 196.463 569.542 198.898C567.107 201.329 563.77 202.825 560.058 202.827C556.346 202.825 553.009 201.329 550.573 198.898C548.142 196.463 546.645 193.125 546.644 189.413C546.645 185.701 548.142 182.364 550.573 179.929C553.009 177.498 556.346 176.002 560.058 176C563.77 176.002 567.107 177.498 569.542 179.929C571.974 182.364 573.47 185.701 573.471 189.413H575.971H578.471C578.469 179.243 570.228 171.002 560.058 171C549.888 171.002 541.646 179.243 541.644 189.413C541.646 199.585 549.888 207.825 560.058 207.827C570.228 207.825 578.469 199.584 578.471 189.413H575.971Z" fill="#00160A"/>
<path d="M157.392 299.377C157.707 299.759 157.83 300.045 157.909 300.374C157.973 300.661 157.989 301.003 157.935 301.439C157.848 302.201 157.517 303.225 157.06 304.39C156.39 306.149 155.438 308.2 155.098 310.62C154.932 311.829 154.942 313.148 155.291 314.491C155.635 315.833 156.32 317.167 157.349 318.388C158.237 319.446 159.814 319.584 160.872 318.696C161.929 317.809 162.067 316.232 161.18 315.174C160.657 314.55 160.372 314.001 160.2 313.474C160.052 313.012 159.989 312.554 159.994 312.05C160.002 311.174 160.244 310.144 160.643 309.005C161.227 307.289 162.161 305.413 162.678 303.269C162.929 302.195 163.069 301.018 162.88 299.768C162.696 298.523 162.138 297.242 161.222 296.163C160.335 295.105 158.758 294.967 157.7 295.855C156.643 296.742 156.505 298.319 157.392 299.377Z" fill="#64FCD9"/>
<path d="M138.705 277.106C139.02 277.488 139.143 277.774 139.221 278.103C139.286 278.391 139.301 278.731 139.248 279.169C139.161 279.93 138.83 280.954 138.373 282.12C137.703 283.879 136.75 285.929 136.41 288.35C136.245 289.559 136.255 290.878 136.603 292.219C136.947 293.562 137.632 294.896 138.662 296.117C139.549 297.174 141.126 297.313 142.184 296.425C143.241 295.538 143.379 293.96 142.492 292.903C141.969 292.279 141.684 291.73 141.512 291.203C141.364 290.741 141.302 290.284 141.307 289.78C141.314 288.902 141.557 287.873 141.956 286.735C142.54 285.018 143.473 283.142 143.991 280.998C144.241 279.924 144.382 278.747 144.193 277.498C144.008 276.251 143.451 274.971 142.535 273.892C141.648 272.834 140.071 272.696 139.013 273.583C137.956 274.471 137.817 276.048 138.705 277.106Z" fill="#64FCD9"/>
<path d="M161.223 296.163C160.434 295.216 159.453 294.503 158.42 294.079C157.517 293.702 156.596 293.536 155.72 293.49C154.185 293.414 152.766 293.666 151.425 293.927C149.423 294.335 147.568 294.758 146.12 294.688C145.394 294.657 144.782 294.528 144.216 294.271C143.649 294.009 143.095 293.617 142.492 292.903C141.604 291.845 140.027 291.708 138.97 292.595C137.912 293.483 137.774 295.059 138.662 296.117C139.554 297.183 140.572 298.01 141.657 298.581C142.604 299.084 143.591 299.389 144.551 299.546C146.235 299.82 147.822 299.67 149.27 299.439C151.434 299.079 153.367 298.551 154.757 298.488C155.451 298.447 155.975 298.51 156.355 298.64C156.738 298.779 157.022 298.946 157.392 299.377C158.279 300.434 159.857 300.572 160.914 299.685C161.972 298.797 162.11 297.22 161.223 296.163Z" fill="#64FCD9"/>
<path d="M142.535 273.892C141.747 272.945 140.766 272.233 139.733 271.808C138.83 271.432 137.908 271.267 137.033 271.22C135.498 271.144 134.08 271.397 132.739 271.658C130.736 272.066 128.881 272.488 127.433 272.417C126.706 272.387 126.096 272.258 125.529 272.001C124.962 271.74 124.408 271.347 123.805 270.633C122.918 269.575 121.34 269.437 120.283 270.324C119.225 271.212 119.088 272.789 119.975 273.846C120.867 274.913 121.886 275.74 122.97 276.312C123.918 276.814 124.905 277.119 125.864 277.276C127.548 277.55 129.135 277.401 130.583 277.169C132.748 276.809 134.68 276.282 136.07 276.217C136.764 276.178 137.289 276.24 137.669 276.371C138.051 276.508 138.334 276.675 138.705 277.106C139.592 278.164 141.169 278.301 142.227 277.414C143.285 276.526 143.422 274.95 142.535 273.892Z" fill="#64FCD9"/>
<path d="M474.668 755.535C474.983 755.917 475.106 756.203 475.185 756.533C475.249 756.82 475.265 757.161 475.211 757.598C475.124 758.359 474.793 759.384 474.336 760.549C473.666 762.308 472.714 764.359 472.374 766.779C472.208 767.988 472.219 769.307 472.567 770.649C472.911 771.992 473.596 773.326 474.626 774.547C475.513 775.605 477.09 775.743 478.148 774.855C479.205 773.968 479.344 772.391 478.456 771.333C477.933 770.709 477.648 770.16 477.476 769.633C477.328 769.171 477.265 768.713 477.27 768.209C477.278 767.332 477.52 766.302 477.919 765.164C478.503 763.447 479.437 761.571 479.954 759.428C480.205 758.354 480.345 757.176 480.156 755.927C479.972 754.681 479.414 753.4 478.499 752.322C477.611 751.264 476.034 751.126 474.977 752.013C473.919 752.9 473.781 754.478 474.668 755.535Z" fill="#64FCD9"/>
<path d="M455.981 733.264C456.296 733.647 456.419 733.933 456.497 734.261C456.562 734.549 456.577 734.89 456.524 735.328C456.437 736.089 456.106 737.113 455.649 738.278C454.979 740.038 454.026 742.088 453.687 744.508C453.521 745.718 453.531 747.037 453.879 748.378C454.224 749.721 454.908 751.055 455.938 752.276C456.825 753.333 458.402 753.471 459.46 752.584C460.517 751.697 460.655 750.119 459.768 749.062C459.246 748.437 458.96 747.889 458.788 747.362C458.641 746.9 458.578 746.443 458.583 745.938C458.59 745.061 458.833 744.032 459.232 742.893C459.816 741.177 460.749 739.3 461.267 737.157C461.518 736.082 461.658 734.906 461.469 733.656C461.285 732.41 460.727 731.13 459.811 730.05C458.924 728.993 457.347 728.854 456.289 729.742C455.232 730.629 455.094 732.207 455.981 733.264Z" fill="#64FCD9"/>
<path d="M478.499 752.322C477.711 751.375 476.729 750.662 475.696 750.237C474.793 749.861 473.872 749.695 472.997 749.649C471.461 749.572 470.043 749.825 468.702 750.086C466.699 750.494 464.844 750.917 463.396 750.846C462.67 750.816 462.058 750.687 461.492 750.43C460.925 750.168 460.371 749.776 459.768 749.062C458.88 748.004 457.303 747.867 456.246 748.754C455.188 749.641 455.05 751.218 455.938 752.276C456.83 753.342 457.849 754.168 458.933 754.74C459.88 755.243 460.867 755.548 461.827 755.705C463.511 755.979 465.098 755.829 466.546 755.598C468.71 755.238 470.643 754.71 472.033 754.646C472.727 754.606 473.252 754.668 473.631 754.799C474.014 754.937 474.298 755.105 474.668 755.536C475.555 756.593 477.133 756.731 478.191 755.844C479.248 754.956 479.386 753.379 478.499 752.322Z" fill="#64FCD9"/>
<path d="M459.811 730.05C459.023 729.103 458.042 728.392 457.009 727.967C456.106 727.59 455.184 727.425 454.309 727.379C452.774 727.303 451.356 727.555 450.015 727.816C448.012 728.225 446.157 728.646 444.709 728.576C443.983 728.546 443.372 728.417 442.805 728.159C442.238 727.898 441.684 727.506 441.081 726.791C440.194 725.734 438.616 725.596 437.559 726.483C436.501 727.371 436.364 728.948 437.251 730.005C438.143 731.072 439.162 731.899 440.246 732.471C441.194 732.973 442.181 733.278 443.14 733.435C444.824 733.709 446.412 733.559 447.859 733.328C450.024 732.968 451.956 732.44 453.346 732.376C454.04 732.337 454.565 732.399 454.945 732.529C455.327 732.667 455.61 732.834 455.981 733.264C456.868 734.322 458.446 734.46 459.503 733.572C460.561 732.685 460.699 731.108 459.811 730.05Z" fill="#64FCD9"/>
<path d="M500.668 38.5355C500.983 38.9172 501.106 39.2034 501.185 39.5325C501.249 39.8199 501.265 40.1613 501.211 40.5981C501.124 41.3592 500.793 42.3836 500.336 43.5489C499.666 45.3081 498.714 47.3592 498.374 49.7789C498.208 50.9882 498.219 52.3072 498.567 53.6494C498.911 54.992 499.596 56.326 500.626 57.5468C501.513 58.6047 503.09 58.7426 504.148 57.8549C505.205 56.9679 505.344 55.3907 504.456 54.3328C503.933 53.7086 503.648 53.1598 503.476 52.633C503.328 52.1708 503.265 51.7131 503.27 51.2089C503.278 50.3322 503.52 49.3022 503.919 48.1637C504.503 46.4475 505.437 44.5715 505.954 42.4277C506.205 41.3537 506.345 40.1763 506.156 38.9268C505.972 37.6814 505.414 36.4004 504.499 35.3215C503.611 34.2636 502.034 34.1257 500.977 35.0134C499.919 35.9004 499.781 37.4776 500.668 38.5355Z" fill="#64FCD9"/>
<path d="M481.981 16.2642C482.296 16.6468 482.419 16.9329 482.497 17.2613C482.562 17.5494 482.577 17.8901 482.524 18.3276C482.437 19.0887 482.106 20.1131 481.649 21.2784C480.979 23.0376 480.026 25.0879 479.687 27.5085C479.521 28.7177 479.531 30.0367 479.879 31.3781C480.224 32.7207 480.908 34.0547 481.938 35.2755C482.825 36.3327 484.402 36.4714 485.46 35.5837C486.517 34.6966 486.655 33.1187 485.768 32.0616C485.246 31.4374 484.96 30.8886 484.788 30.3618C484.641 29.8995 484.578 29.4427 484.583 28.9384C484.59 28.061 484.833 27.0317 485.232 25.8933C485.816 24.177 486.749 22.3002 487.267 20.1572C487.518 19.0825 487.658 17.9059 487.469 16.6563C487.285 15.4101 486.727 14.1299 485.811 13.0503C484.924 11.9932 483.347 11.8545 482.289 12.7422C481.232 13.6292 481.094 15.2071 481.981 16.2642Z" fill="#64FCD9"/>
<path d="M504.499 35.3217C503.711 34.3747 502.729 33.662 501.696 33.2374C500.793 32.8609 499.872 32.6952 498.997 32.6491C497.461 32.5723 496.043 32.8251 494.702 33.0861C492.699 33.4937 490.844 33.917 489.396 33.8463C488.67 33.8162 488.058 33.6867 487.492 33.4299C486.925 33.168 486.371 32.7761 485.768 32.0618C484.88 31.0039 483.303 30.8666 482.246 31.7536C481.188 32.6413 481.05 34.2178 481.938 35.2757C482.83 36.3418 483.849 37.1684 484.933 37.7402C485.88 38.2427 486.867 38.5476 487.827 38.7047C489.511 38.9791 491.098 38.829 492.546 38.598C494.71 38.2379 496.643 37.71 498.033 37.6464C498.727 37.6062 499.252 37.6685 499.631 37.7989C500.014 37.9375 500.298 38.105 500.668 38.5356C501.555 39.5928 503.133 39.7308 504.191 38.8438C505.248 37.9561 505.386 36.3788 504.499 35.3217Z" fill="#64FCD9"/>
<path d="M485.811 13.0504C485.023 12.1034 484.042 11.3915 483.009 10.9669C482.106 10.5904 481.184 10.4253 480.309 10.3786C478.774 10.3025 477.356 10.5554 476.015 10.8164C474.012 11.2246 472.157 11.6465 470.709 11.5758C469.983 11.5456 469.372 11.417 468.805 11.1594C468.238 10.8983 467.684 10.5056 467.081 9.79125C466.194 8.73411 464.616 8.59606 463.559 9.48311C462.501 10.3708 462.364 11.948 463.251 13.0052C464.143 14.072 465.162 14.8987 466.246 15.4705C467.194 15.9729 468.181 16.2779 469.14 16.4349C470.824 16.7086 472.412 16.5593 473.859 16.3275C476.024 15.9682 477.956 15.4402 479.346 15.3759C480.04 15.3365 480.565 15.3987 480.945 15.5292C481.327 15.667 481.61 15.8337 481.981 16.2644C482.868 17.3223 484.446 17.4595 485.503 16.5725C486.561 15.6848 486.699 14.1083 485.811 13.0504Z" fill="#64FCD9"/>
<path d="M108.057 385.682C104.341 385.68 101.002 384.189 98.5678 381.77C96.1378 379.346 94.6448 376.028 94.6438 372.34C94.6448 368.652 96.1378 365.334 98.5678 362.911C101.002 360.492 104.341 359.001 108.057 359C109.437 359 110.557 357.881 110.557 356.5C110.557 355.119 109.437 354 108.057 354C102.983 353.999 98.3658 356.054 95.0408 359.368C91.7108 362.677 89.6418 367.28 89.6438 372.34C89.6418 377.4 91.7108 382.003 95.0398 385.313C98.3658 388.627 102.983 390.683 108.057 390.682C109.437 390.682 110.557 389.562 110.557 388.182C110.557 386.801 109.437 385.682 108.057 385.682Z" fill="#00160A"/>
<path d="M651.364 654.937L632.139 646.712C630.87 646.169 629.401 646.757 628.858 648.026C628.315 649.297 628.904 650.766 630.173 651.308L649.398 659.534C650.667 660.077 652.136 659.489 652.679 658.22C653.223 656.95 652.633 655.48 651.364 654.937Z" fill="#64FCD9"/>
<path d="M638.953 663.722L647.181 644.497C647.724 643.227 647.136 641.758 645.867 641.215C644.597 640.672 643.128 641.261 642.584 642.53L634.357 661.756C633.814 663.025 634.402 664.494 635.671 665.037C636.941 665.58 638.41 664.991 638.953 663.722Z" fill="#64FCD9"/>
<path d="M591.294 686.208L603.561 652.502C604.034 651.204 603.364 649.77 602.067 649.298C600.77 648.826 599.335 649.494 598.863 650.792L586.595 684.498C586.123 685.796 586.792 687.23 588.089 687.702C589.386 688.174 590.821 687.506 591.294 686.208Z" fill="#00160A"/>
<path d="M321.971 703.412H319.471C319.47 707.124 317.974 710.462 315.542 712.897C313.107 715.328 309.77 716.825 306.058 716.826C302.347 716.825 299.009 715.328 296.573 712.897C294.142 710.461 292.646 707.124 292.644 703.412C292.646 699.7 294.142 696.363 296.573 693.928C299.009 691.497 302.347 690.001 306.058 690C309.77 690.001 313.108 691.497 315.543 693.928C317.974 696.363 319.47 699.7 319.471 703.412H321.971H324.471C324.47 693.241 316.228 685.001 306.058 685C300.982 684.998 296.363 687.064 293.038 690.392C289.709 693.716 287.643 698.335 287.644 703.412C287.646 713.583 295.889 721.824 306.058 721.826C316.228 721.824 324.47 713.583 324.471 703.412H321.971Z" fill="#00160A"/>
<path d="M63.1438 544.5V547H92.2978V573.655H65.6438V544.5H63.1438V547V544.5H60.6438V576.155C60.6438 576.813 60.9108 577.457 61.3768 577.922C61.8418 578.388 62.4858 578.655 63.1438 578.655H94.7978C95.4558 578.655 96.0998 578.388 96.5648 577.922C97.0308 577.457 97.2978 576.813 97.2978 576.155V544.5C97.2978 543.842 97.0308 543.198 96.5648 542.732C96.0998 542.267 95.4558 542 94.7978 542H63.1438C62.4858 542 61.8418 542.267 61.3768 542.732C60.9108 543.198 60.6438 543.842 60.6438 544.5H63.1438Z" fill="#64FCD9"/>
<path d="M204.749 67.071L203.419 64.954C202.787 65.35 202.104 65.532 201.417 65.533C200.79 65.534 200.167 65.376 199.616 65.079C199.065 64.78 198.588 64.348 198.226 63.772L198.224 63.77C197.828 63.138 197.645 62.455 197.644 61.768C197.644 61.143 197.801 60.52 198.098 59.97C198.397 59.419 198.829 58.941 199.405 58.578C200.034 58.184 200.715 58.002 201.402 58C202.029 58 202.654 58.157 203.205 58.455C203.757 58.755 204.234 59.186 204.596 59.761L204.598 59.763C204.993 60.393 205.175 61.074 205.176 61.761C205.177 62.387 205.019 63.012 204.721 63.563C204.422 64.115 203.991 64.593 203.417 64.955L203.419 64.954L204.749 67.071L206.081 69.186C207.398 68.358 208.43 67.222 209.122 65.938C209.815 64.652 210.176 63.217 210.176 61.761C210.178 60.168 209.738 58.541 208.829 57.099L208.83 57.101C208.002 55.782 206.866 54.749 205.58 54.056C204.295 53.362 202.859 53.001 201.402 53C199.809 52.999 198.184 53.438 196.742 54.346C195.425 55.173 194.392 56.308 193.7 57.593C193.006 58.878 192.644 60.313 192.644 61.768C192.643 63.363 193.083 64.99 193.993 66.434L193.991 66.431C194.819 67.75 195.954 68.784 197.239 69.477C198.525 70.172 199.96 70.533 201.417 70.533C203.01 70.535 204.636 70.095 206.079 69.188L206.081 69.186L204.749 67.071Z" fill="#00160A"/>
<path d="M186.015 146.346L188.281 147.4L197.135 128.381C197.512 127.571 197.429 126.621 196.916 125.89C196.402 125.159 195.538 124.757 194.649 124.835L173.759 126.683L173.76 126.683L152.86 128.525C151.97 128.603 151.19 129.15 150.813 129.96C150.437 130.77 150.52 131.719 151.033 132.45L163.077 149.621L163.077 149.619L175.117 166.797C175.629 167.528 176.494 167.931 177.383 167.853C178.273 167.774 179.054 167.227 179.43 166.417L188.281 147.4L186.015 146.346L183.748 145.291L176.725 160.381L167.171 146.75L167.17 146.749L157.614 133.125L174.199 131.664L174.2 131.664L190.774 130.198L183.748 145.291L186.015 146.346Z" fill="#00160A"/>
</g>
<defs>
<clipPath id="clip0_264_1193">
<rect width="692.288" height="879.804" fill="white"/>
</clipPath>
</defs>
</svg>
