<svg width="278" height="352" viewBox="0 0 278 352" fill="none" xmlns="http://www.w3.org/2000/svg">
<g clip-path="url(#clip0_177_539)" filter="url(#filter0_d_177_539)">
<path d="M140.357 163.799C163.252 158.428 175.958 148.476 182.954 139.681C186.546 135.166 188.618 130.974 189.794 127.898C190.382 126.36 190.746 125.101 190.964 124.22C191.073 123.779 191.145 123.432 191.191 123.192C191.214 123.072 191.23 122.979 191.241 122.913C191.246 122.881 191.25 122.855 191.253 122.837L191.256 122.814L191.257 122.808L191.258 122.805C191.258 122.804 191.258 122.803 190.305 122.67L191.258 122.803L191.294 122.546L191.196 122.305C186.252 110.225 176.992 106.105 169.032 105.032C165.069 104.497 161.422 104.714 158.772 105.061C157.444 105.235 156.362 105.443 155.607 105.608C155.23 105.691 154.935 105.763 154.731 105.815C154.629 105.841 154.551 105.862 154.496 105.876L154.433 105.894L154.416 105.899L154.41 105.9L154.409 105.901C154.408 105.901 154.408 105.901 154.674 106.826L154.408 105.901L153.728 106.097L153.712 106.804C153.346 122.895 143.631 131.384 133.876 135.901C128.99 138.163 124.115 139.413 120.455 140.097C118.627 140.438 117.107 140.637 116.048 140.751C115.725 140.785 115.445 140.812 115.212 140.832C114.089 135.491 113.535 127.104 113.266 119.843C113.126 116.041 113.064 112.574 113.038 110.056C113.024 108.798 113.02 107.778 113.019 107.072C113.018 106.72 113.019 106.446 113.019 106.26L113.02 106.05L113.02 105.996L113.02 105.983L113.02 105.98L113.02 105.979C113.02 105.979 113.02 105.979 112.058 105.973L113.02 105.979L113.023 105.474L112.609 105.185C106.577 100.967 102.809 99.6478 100.452 99.4706C99.8224 99.4233 99.2886 99.457 98.8383 99.5415C100.832 84.045 105.344 73.733 109.386 67.2712C111.482 63.9198 113.456 61.5982 114.894 60.1225C115.613 59.3845 116.198 58.8578 116.598 58.5195C116.798 58.3503 116.952 58.2282 117.053 58.1503C117.104 58.1114 117.141 58.0835 117.164 58.0664L117.189 58.0486L117.191 58.0466L117.192 58.046L117.193 58.0457L140.357 163.799ZM140.357 163.799C141.033 164.189 141.912 164.654 142.971 165.159C146.007 166.608 150.464 168.364 155.749 169.646C166.241 172.189 179.863 172.832 192.145 165.674C192.164 165.604 192.186 165.523 192.21 165.434C192.319 165.03 192.476 164.432 192.67 163.658C193.059 162.109 193.594 159.855 194.179 157.043C195.35 151.417 196.718 143.563 197.512 134.655C199.102 116.798 198.362 94.8776 189.252 78.1325C181.734 64.3151 170.539 55.9938 158.758 52.1238C157.879 54.193 156.231 57.5669 153.787 60.5161C150.986 63.8955 146.994 66.8823 141.799 66.4275C138.748 66.1656 136.719 64.9499 135.497 63.1616C134.306 61.4183 133.975 59.2649 134.007 57.2746C134.039 55.2717 134.442 53.3237 134.828 51.8922C135.022 51.1727 135.214 50.5749 135.359 50.155C135.374 50.11 135.389 50.067 135.403 50.0261L140.357 163.799Z" fill="#F290A6" fill-opacity="0.88" stroke="#20114A" stroke-width="1.92471"/>
<path d="M195.707 151.997L257.277 192.739C269.217 200.639 267.681 218.618 254.587 224.378L182.534 256.089C168.906 262.085 153.139 260.543 140.932 252.019L113.261 232.674" stroke="#20114A" stroke-width="1.6206"/>
<path d="M195.707 165.136L193.636 163.763L257.288 205.87C269.228 213.77 267.692 231.749 254.599 237.51L182.545 269.221C168.918 275.217 153.15 273.674 140.943 265.151L105.761 240.094" stroke="#20114A" stroke-width="1.6206"/>
<path d="M249.287 222.13L183.062 251.28C170.537 256.788 156.047 255.37 144.828 247.537L119.451 229.709C122.945 227.031 126.86 224.953 131.036 223.56C141.497 220.007 151.706 215.75 161.593 210.82C176.789 203.303 187.838 189.398 191.727 172.896C193.055 167.257 194.221 161.552 195.175 155.818L253.459 194.346C264.429 201.604 261.317 216.841 249.287 222.13Z" fill="#27D7BF"/>
<path d="M78.6412 306.61C78.6412 306.61 90.253 301.796 92.4787 298.167C92.4787 298.167 92.8971 306.406 90.7245 309.22C88.5515 312.034 75.5667 319.474 74.8688 318.542C74.1709 317.61 78.6412 306.61 78.6412 306.61Z" fill="#E59B56"/>
<path d="M42.8975 326.241C42.8975 326.241 45.01 329.108 52.506 326.241C60.0016 323.374 76.31 312.815 76.31 312.815C76.31 312.815 71.7604 325.03 70.1117 326.373C68.4633 327.716 37.3181 342.972 37.3181 342.972C37.3181 342.972 23.3941 344.953 28.6416 335.05L42.8975 326.241Z" fill="#E59B56"/>
<path d="M87.7212 166.638C70.5567 173.319 52.3925 189.016 57.6173 232.486L59.0697 243.78" stroke="#20114A" stroke-width="1.6206"/>
<path d="M87.695 138.251C90.5016 134.244 93.0368 129.913 94.5908 125.251C96.1452 120.588 96.2245 115.537 96.6584 110.633C97.8124 97.4818 99.6008 86.606 104.675 74.3568C109.07 63.7563 122.345 50.1001 135.552 48.8064L136.74 48.7043" stroke="#20114A" stroke-width="1.6206"/>
<path d="M120.892 165.676C120.828 165.491 120.764 165.318 120.696 165.136" stroke="#20114A" stroke-width="1.6206"/>
<path d="M114.453 141.038C113.804 137.224 113.321 133.527 112.944 130.019C112.945 129.953 112.937 129.887 112.921 129.823C110.944 110.233 112.944 95.9802 112.944 95.9802" stroke="#20114A" stroke-width="1.6206"/>
<path d="M160.593 22.1386L157.575 23.3157C157.575 23.4101 157.575 24.5868 157.447 26.2355C157.307 28.2045 156.994 30.1573 156.511 32.0716C156.779 30.7663 157.168 27.6652 155.463 25.5076C155.436 25.4633 155.406 25.4218 155.372 25.3829C154.241 24.021 152.845 24.5606 151.724 25.496C150.951 26.1508 150.275 26.913 149.717 27.7595C149.913 25.2393 149.461 22.711 148.405 20.4148C147.716 18.8481 146.802 17.3904 145.692 16.0877C147.401 21.9727 145.209 25.8244 145.209 25.8244C139.418 27.1863 135.401 26.8957 132.406 26.3787C129.882 24.0248 130.757 15.5482 130.757 15.5482C128.218 17.623 128.83 25.6508 128.83 25.6508C128.505 23.5559 128.545 21.4211 128.947 19.3395C127.685 21.1231 126.957 23.228 126.845 25.4094L126.8 25.3867C126.625 25.3417 126.452 25.2878 126.283 25.2247C125.972 25.0611 125.671 24.8798 125.382 24.6811L123.71 23.5494C126.234 10.6742 135.058 2.57862 148.691 4.95524C149.581 5.10864 150.457 5.33576 151.309 5.63428C160.292 10.3159 160.593 22.1386 160.593 22.1386Z" fill="#F290A6" fill-opacity="0.88"/>
<path d="M82.791 147.534L79.3543 137.19C79.1995 136.7 78.803 136.325 78.3057 136.198C78.2753 136.198 78.2414 136.198 78.2075 136.175C78.1737 136.153 78.166 136.175 78.1432 136.175C78.0643 136.17 77.9846 136.17 77.9057 136.175C77.5246 136.177 77.1578 136.322 76.8795 136.583C76.3155 137.104 75.9941 137.836 75.993 138.605C75.9934 138.902 76.0403 139.197 76.1327 139.48C76.8872 141.664 78.2302 145.606 78.8677 147.402" fill="#E85BF4"/>
<path d="M82.0137 147.534L78.309 136.198C78.279 136.198 78.2451 136.198 78.2112 136.175C78.177 136.153 78.1697 136.175 78.147 136.175L76.2042 135.798C75.1667 135.606 74.1293 135.398 73.0919 135.206C71.847 134.957 70.5944 134.749 69.3534 134.451C69.0604 134.369 68.7594 134.318 68.4557 134.301C68.073 134.299 67.7054 134.447 67.4294 134.712C66.8601 135.232 66.5383 135.97 66.5429 136.741C66.541 137.035 66.5883 137.327 66.6826 137.605C67.5164 140.05 69.1043 144.675 69.6101 146.078L82.0137 147.534Z" fill="#E85BF4"/>
<path d="M155.259 95.9767C154.882 100.175 154.686 105.257 154.554 111.643C154.554 125.224 139.54 136.47 126.197 139.042L101.729 144.569C98.4958 145.195 95.6322 143.177 93.3841 141.838C91.0714 140.461 88.7025 138.82 87.0349 137.602C84.6356 135.847 80.0144 137.258 80.9613 141.442C81.3751 143.054 82.5176 144.381 84.0509 145.029C84.477 145.22 84.9154 145.382 85.3639 145.512C85.7069 145.598 85.9498 145.904 85.9548 146.258C85.9602 146.612 85.7269 146.925 85.3866 147.021C83.2664 147.753 79.3846 148.187 73.1224 145.889C65.0983 142.936 64.4758 161.247 75.4463 164.435H75.4875C85.5941 167.49 96.4698 167.098 106.916 166.66C118.778 166.211 130.581 164.771 142.203 162.356C148.114 161.104 154.188 159.802 159.597 157.128C168.915 152.521 175.63 147.24 182.017 139.02C189.185 129.804 192.244 117.713 193.972 106.377C195.949 93.4076 193.217 82.456 186.265 71.2935L186.008 70.8862" stroke="#20114A" stroke-width="1.6206"/>
<path d="M82.791 147.534L79.3543 137.19C79.1995 136.7 78.803 136.325 78.3057 136.198C78.2753 136.198 78.2414 136.198 78.2075 136.175C78.1737 136.153 78.166 136.175 78.1432 136.175C78.0643 136.17 77.9846 136.17 77.9057 136.175C77.5246 136.177 77.1578 136.322 76.8795 136.583C76.3155 137.104 75.9941 137.836 75.993 138.605C75.9934 138.902 76.0403 139.197 76.1327 139.48C76.8872 141.664 78.2302 145.606 78.8677 147.402" stroke="#20114A" stroke-width="1.6206"/>
<path d="M78.3094 136.198C78.279 136.198 78.2451 136.198 78.2112 136.175C78.1774 136.153 78.1697 136.175 78.147 136.175L76.2042 135.798C75.1667 135.606 74.1293 135.398 73.0919 135.206C71.847 134.957 70.5948 134.749 69.3537 134.451C69.0608 134.369 68.7598 134.318 68.4557 134.301C68.0734 134.299 67.7054 134.447 67.4298 134.712C66.8605 135.232 66.5383 135.97 66.5433 136.741C66.5414 137.035 66.5883 137.327 66.6826 137.605C67.5164 140.05 69.1047 144.675 69.6101 146.078" stroke="#20114A" stroke-width="1.6206"/>
<path d="M125.672 25.0398C125.672 29.9439 126.626 34.6333 128.981 38.9639C130.867 42.4422 133.636 45.9467 137.597 47.0973C138.475 47.3506 139.384 47.4776 140.298 47.4745C147.02 47.4445 148.069 39.4809 148.069 39.4809" stroke="#20114A" stroke-width="1.6206"/>
<path d="M157.221 27.884V27.9064C156.909 30.34 156.374 32.7393 155.621 35.074C154.723 37.8594 154.51 40.8204 155.003 43.7055L156.048 49.7829C156.145 50.3353 156.549 50.7838 157.089 50.937C170.353 54.7887 182.126 63.2882 188.977 75.5598C197.522 90.8835 199.08 109.338 198.389 126.54C197.782 141.453 195.372 156.278 191.95 170.791C187.715 188.749 175.69 203.882 159.152 212.065C148.404 217.432 137.304 222.064 125.929 225.929C113.734 229.967 104.006 239.282 99.4427 251.29L72.7112 322.37C71.7288 324.995 69.791 327.15 67.2862 328.406L41.6715 341.274C38.4368 342.893 34.7471 343.361 31.2107 342.602C29.3341 342.197 27.8967 340.685 27.5868 338.791C27.277 336.896 28.1577 335.005 29.8072 334.023L42.8902 326.241L60.8808 234.526C63.443 217.967 73.1196 203.358 87.3671 194.538C88.3055 193.966 89.2837 193.462 90.2945 193.029L129.294 176.095" stroke="#20114A" stroke-width="1.6206"/>
<path d="M146.5 4.06872C144.415 3.5718 142.257 3.46182 140.132 3.74429C140.045 3.74622 139.958 3.75376 139.871 3.76693" stroke="#20114A" stroke-width="1.6206"/>
<path d="M137.053 48.9265C137.053 48.9265 130.154 64.7441 142.493 65.5252C153.565 66.2342 157.629 51.19 157.629 51.19" stroke="#20114A" stroke-width="1.6206"/>
<path fill-rule="evenodd" clip-rule="evenodd" d="M156.353 32.6484C156.432 32.3581 157.621 28.0687 155.35 25.3676C153.079 22.6665 150.001 27.2992 149.691 27.7631C150.295 21.1125 145.673 16.0686 145.673 16.0686C147.379 21.9574 145.183 25.8053 145.183 25.8053C136.744 27.782 132.1 26.2768 128.807 25.6278C128.483 23.5341 128.524 21.4004 128.928 19.3205C127.663 21.0994 126.934 23.2031 126.826 25.3826H126.774C125.52 25.0497 124.331 24.5077 123.258 23.7793L121.586 22.6476C124.114 9.77623 132.934 1.67306 146.568 4.04969C160.201 6.42632 160.582 22.1045 160.582 22.1045L157.545 23.2855C157.545 23.2855 157.572 28.461 156.353 32.6484Z" stroke="#20114A" stroke-width="1.6206"/>
<path d="M130.961 31.9773V38.2357C130.962 38.39 131.037 38.5348 131.162 38.6256C131.287 38.7165 131.447 38.7426 131.595 38.6957C132.087 38.5328 132.539 38.268 132.923 37.9189" stroke="#20114A" stroke-width="1.6206"/>
<path d="M136.499 46.7009C136.499 46.7009 137.348 49.5757 139.845 58.8936" stroke="#20114A" stroke-width="1.6206"/>
<path d="M73.975 319.013L88.6875 311.072C90.3993 310.144 91.5418 308.429 91.7393 306.492C94.1837 282.481 93.4369 267.301 93.4369 267.301" stroke="#20114A" stroke-width="1.6206"/>
<path d="M60.6206 195.874L4 156.305" stroke="#20114A" stroke-width="1.6206"/>
<path d="M57.414 206.776L4 169.445" stroke="#20114A" stroke-width="1.6206"/>
<path d="M274 131.565V163.959C274 166.994 272.21 169.744 269.435 170.972L229.259 188.763L216.976 207.429C216.327 208.379 215.139 208.8 214.037 208.469C212.935 208.139 212.174 207.134 212.155 205.984V196.342L208.035 198.164C206.174 198.977 204.028 198.801 202.325 197.693C200.622 196.585 199.591 194.695 199.581 192.664V165.612C199.582 158.716 203.677 152.479 210.004 149.737L265.217 125.801C267.16 124.958 269.395 125.15 271.165 126.312C272.935 127.474 274.001 129.448 274 131.565Z" fill="#E7F0FA" fill-opacity="0.91"/>
<path d="M224.716 173.905C226.695 170.088 226.159 165.884 223.52 164.515C220.88 163.147 217.136 165.133 215.157 168.951C213.178 172.769 213.714 176.973 216.353 178.341C218.993 179.709 222.737 177.723 224.716 173.905Z" fill="#F290A6" fill-opacity="0.88"/>
<path d="M241.874 166.561C243.853 162.743 243.318 158.539 240.678 157.171C238.039 155.803 234.295 157.788 232.316 161.606C230.337 165.424 230.872 169.628 233.512 170.996C236.151 172.365 239.895 170.379 241.874 166.561Z" fill="#F290A6" fill-opacity="0.88"/>
<path d="M258.456 158.631C260.435 154.813 259.899 150.609 257.259 149.24C254.62 147.872 250.876 149.858 248.897 153.676C246.918 157.494 247.453 161.698 250.093 163.066C252.733 164.434 256.477 162.448 258.456 158.631Z" fill="#F290A6" fill-opacity="0.88"/>
<path d="M226.4 118.473L227.342 118.725L229.455 110.82C229.545 110.484 229.448 110.124 229.202 109.878C228.955 109.632 228.596 109.536 228.26 109.627L220.361 111.751H220.362L212.459 113.874C212.123 113.964 211.86 114.227 211.77 114.564C211.68 114.9 211.777 115.259 212.023 115.505L217.812 121.285L217.812 121.284L223.599 127.066C223.846 127.313 224.205 127.409 224.541 127.318C224.878 127.228 225.141 126.965 225.23 126.628L227.342 118.725L226.4 118.473L225.458 118.222L223.783 124.493L219.19 119.905L219.19 119.904L214.596 115.319L220.867 113.634H220.868L227.135 111.949L225.458 118.222L226.4 118.473Z" fill="#E85BF4"/>
<path d="M228.635 73.8732H227.66C227.66 75.3213 227.076 76.6227 226.128 77.5724C225.178 78.5205 223.877 79.104 222.429 79.1048C220.981 79.104 219.68 78.5205 218.73 77.5724C217.782 76.6227 217.198 75.3209 217.197 73.8732C217.198 72.4254 217.782 71.124 218.73 70.1743C219.68 69.2262 220.981 68.6427 222.429 68.642C223.877 68.6427 225.178 69.2262 226.128 70.1743C227.076 71.124 227.66 72.4254 227.66 73.8732H228.635H229.61C229.609 69.9068 226.395 66.6927 222.429 66.6919C218.462 66.6927 215.248 69.9068 215.247 73.8732C215.248 77.8404 218.462 81.0541 222.429 81.0548C226.395 81.0541 229.609 77.84 229.61 73.8732H228.635Z" fill="#20114A"/>
<path d="M65.3849 116.76C65.5078 116.909 65.5556 117.021 65.5864 117.149C65.6112 117.261 65.6176 117.394 65.5966 117.565C65.5626 117.862 65.4335 118.261 65.2553 118.716C64.994 119.402 64.6226 120.202 64.4899 121.145C64.4254 121.617 64.4294 122.131 64.5652 122.655C64.6996 123.179 64.9666 123.699 65.3682 124.175C65.7144 124.588 66.3292 124.641 66.7418 124.295C67.1541 123.949 67.2082 123.334 66.862 122.921C66.6582 122.678 66.5469 122.464 66.4798 122.259C66.4222 122.078 66.3977 121.9 66.3997 121.703C66.4025 121.361 66.4972 120.959 66.6525 120.515C66.8805 119.846 67.2446 119.114 67.4462 118.278C67.5443 117.86 67.5989 117.4 67.525 116.913C67.4534 116.427 67.2358 115.928 66.8787 115.507C66.5325 115.094 65.9176 115.04 65.505 115.387C65.0927 115.733 65.0386 116.348 65.3849 116.76Z" fill="#E85BF4"/>
<path d="M58.0964 108.074C58.2196 108.223 58.2674 108.335 58.298 108.463C58.323 108.575 58.3291 108.708 58.3084 108.879C58.2744 109.176 58.1453 109.575 57.9671 110.03C57.7058 110.716 57.3341 111.515 57.2017 112.459C57.1372 112.931 57.1412 113.445 57.2767 113.969C57.4111 114.492 57.6782 115.013 58.0797 115.489C58.4257 115.901 59.0408 115.955 59.4534 115.609C59.8657 115.263 59.9195 114.648 59.5736 114.235C59.3698 113.992 59.2584 113.778 59.1914 113.572C59.1338 113.392 59.1095 113.214 59.1115 113.017C59.114 112.675 59.209 112.274 59.3644 111.83C59.5923 111.16 59.9562 110.428 60.158 109.592C60.2559 109.173 60.3107 108.714 60.2368 108.227C60.165 107.741 59.9476 107.242 59.5902 106.821C59.2443 106.408 58.6292 106.354 58.2166 106.7C57.8043 107.046 57.7504 107.662 58.0964 108.074Z" fill="#E85BF4"/>
<path d="M66.8787 115.507C66.5714 115.138 66.1885 114.86 65.7858 114.694C65.4335 114.547 65.0743 114.483 64.7328 114.465C64.1339 114.435 63.5807 114.533 63.0578 114.635C62.2767 114.794 61.5533 114.959 60.9885 114.932C60.7052 114.92 60.4669 114.869 60.2459 114.769C60.0247 114.667 59.8089 114.514 59.5736 114.236C59.2274 113.823 58.6122 113.769 58.2 114.115C57.7874 114.462 57.7336 115.077 58.0798 115.489C58.4276 115.905 58.8249 116.227 59.2478 116.45C59.6174 116.646 60.0023 116.765 60.3765 116.826C61.0335 116.933 61.6523 116.875 62.2172 116.785C63.0611 116.644 63.8149 116.438 64.3572 116.414C64.6276 116.398 64.8323 116.422 64.9804 116.473C65.1296 116.527 65.2404 116.593 65.3849 116.761C65.7309 117.173 66.3462 117.227 66.7585 116.881C67.1711 116.534 67.2247 115.919 66.8787 115.507Z" fill="#E85BF4"/>
<path d="M59.5902 106.821C59.2829 106.452 58.9002 106.174 58.4975 106.008C58.1452 105.862 57.7857 105.797 57.4446 105.779C56.8459 105.749 56.2927 105.848 55.7698 105.95C54.9884 106.109 54.2651 106.273 53.7003 106.246C53.417 106.234 53.1789 106.184 52.9576 106.083C52.7367 105.982 52.5206 105.828 52.2853 105.55C51.9394 105.138 51.324 105.084 50.9117 105.43C50.4991 105.776 50.4456 106.391 50.7915 106.803C51.1396 107.219 51.5369 107.542 51.9598 107.765C52.3294 107.961 52.7143 108.08 53.0885 108.141C53.7452 108.248 54.3643 108.189 54.9289 108.099C55.7731 107.959 56.5269 107.753 57.0689 107.728C57.3396 107.713 57.5443 107.737 57.6924 107.788C57.8413 107.841 57.9519 107.906 58.0964 108.074C58.4426 108.487 59.0577 108.541 59.47 108.195C59.8826 107.848 59.9364 107.234 59.5902 106.821Z" fill="#E85BF4"/>
<path d="M189.126 294.667C189.249 294.816 189.297 294.928 189.327 295.056C189.352 295.168 189.359 295.301 189.338 295.472C189.304 295.769 189.175 296.168 188.996 296.623C188.735 297.309 188.364 298.109 188.231 299.052C188.166 299.524 188.17 300.038 188.306 300.562C188.441 301.086 188.708 301.606 189.109 302.082C189.455 302.495 190.07 302.548 190.483 302.202C190.895 301.856 190.949 301.241 190.603 300.828C190.399 300.585 190.288 300.371 190.221 300.166C190.163 299.985 190.139 299.807 190.141 299.61C190.144 299.268 190.238 298.866 190.394 298.422C190.622 297.753 190.986 297.021 191.187 296.185C191.285 295.766 191.34 295.307 191.266 294.82C191.194 294.334 190.977 293.835 190.62 293.414C190.274 293.001 189.659 292.947 189.246 293.294C188.834 293.64 188.78 294.255 189.126 294.667Z" fill="#E85BF4"/>
<path d="M181.838 285.981C181.961 286.13 182.008 286.242 182.039 286.37C182.064 286.483 182.07 286.615 182.049 286.786C182.015 287.083 181.886 287.482 181.708 287.937C181.447 288.623 181.075 289.423 180.943 290.367C180.878 290.838 180.882 291.353 181.018 291.876C181.152 292.4 181.419 292.92 181.821 293.396C182.167 293.808 182.782 293.862 183.194 293.516C183.607 293.17 183.661 292.555 183.315 292.142C183.111 291.899 183 291.685 182.933 291.479C182.875 291.299 182.851 291.121 182.853 290.924C182.855 290.582 182.95 290.181 183.105 289.737C183.333 289.067 183.697 288.335 183.899 287.5C183.997 287.08 184.052 286.622 183.978 286.134C183.906 285.648 183.689 285.149 183.331 284.728C182.985 284.316 182.37 284.261 181.958 284.608C181.545 284.954 181.492 285.569 181.838 285.981Z" fill="#E85BF4"/>
<path d="M190.62 293.414C190.312 293.045 189.93 292.767 189.527 292.601C189.175 292.454 188.815 292.39 188.474 292.372C187.875 292.342 187.322 292.44 186.799 292.542C186.018 292.701 185.294 292.866 184.73 292.839C184.446 292.827 184.208 292.776 183.987 292.676C183.766 292.574 183.55 292.421 183.315 292.143C182.968 291.73 182.353 291.676 181.941 292.022C181.528 292.369 181.475 292.983 181.821 293.396C182.169 293.812 182.566 294.134 182.989 294.357C183.358 294.553 183.743 294.672 184.118 294.733C184.775 294.84 185.393 294.782 185.958 294.692C186.802 294.551 187.556 294.345 188.098 294.321C188.369 294.305 188.573 294.329 188.721 294.38C188.871 294.434 188.981 294.5 189.126 294.667C189.472 295.08 190.087 295.134 190.5 294.788C190.912 294.441 190.966 293.826 190.62 293.414Z" fill="#E85BF4"/>
<path d="M183.332 284.728C183.024 284.358 182.642 284.081 182.239 283.915C181.887 283.768 181.527 283.704 181.186 283.686C180.587 283.656 180.034 283.755 179.511 283.856C178.73 284.016 178.006 284.18 177.442 284.153C177.158 284.141 176.92 284.091 176.699 283.99C176.478 283.888 176.262 283.735 176.027 283.457C175.681 283.044 175.065 282.99 174.653 283.336C174.24 283.683 174.187 284.298 174.533 284.71C174.881 285.126 175.278 285.449 175.701 285.672C176.071 285.867 176.456 285.986 176.83 286.048C177.487 286.154 178.106 286.096 178.67 286.006C179.514 285.866 180.268 285.66 180.81 285.635C181.081 285.619 181.286 285.644 181.434 285.694C181.583 285.748 181.693 285.813 181.838 285.981C182.184 286.394 182.799 286.447 183.211 286.101C183.624 285.755 183.678 285.14 183.332 284.728Z" fill="#E85BF4"/>
<path d="M199.266 15.0296C199.389 15.1785 199.437 15.2901 199.468 15.4185C199.493 15.5306 199.499 15.6637 199.478 15.8341C199.444 16.1309 199.315 16.5305 199.137 16.9849C198.875 17.671 198.504 18.471 198.371 19.4147C198.307 19.8863 198.311 20.4008 198.447 20.9242C198.581 21.4479 198.848 21.9681 199.25 22.4443C199.596 22.8569 200.211 22.9106 200.623 22.5644C201.035 22.2185 201.09 21.6034 200.743 21.1908C200.54 20.9473 200.428 20.7333 200.361 20.5278C200.304 20.3476 200.279 20.1691 200.281 19.9724C200.284 19.6305 200.379 19.2288 200.534 18.7848C200.762 18.1154 201.126 17.3838 201.328 16.5476C201.426 16.1288 201.48 15.6696 201.406 15.1823C201.335 14.6965 201.117 14.1969 200.76 13.7762C200.414 13.3636 199.799 13.3098 199.386 13.656C198.974 14.0019 198.92 14.617 199.266 15.0296Z" fill="#E85BF4"/>
<path d="M191.978 6.34361C192.101 6.4928 192.149 6.60439 192.179 6.73247C192.204 6.84484 192.211 6.9777 192.19 7.14835C192.156 7.44518 192.027 7.84471 191.849 8.29919C191.587 8.9853 191.216 9.78494 191.083 10.729C191.019 11.2006 191.023 11.715 191.158 12.2382C191.293 12.7618 191.56 13.2821 191.961 13.7582C192.307 14.1705 192.922 14.2246 193.335 13.8784C193.747 13.5324 193.801 12.917 193.455 12.5048C193.251 12.2613 193.14 12.0473 193.073 11.8418C193.015 11.6615 192.991 11.4833 192.993 11.2867C192.995 10.9445 193.09 10.543 193.246 10.099C193.474 9.42967 193.838 8.69772 194.039 7.8619C194.137 7.44275 194.192 6.98386 194.118 6.49653C194.046 6.0105 193.829 5.51118 193.472 5.09013C193.126 4.67784 192.511 4.62375 192.098 4.96996C191.686 5.31591 191.632 5.93131 191.978 6.34361Z" fill="#E85BF4"/>
<path d="M200.76 13.7763C200.453 13.407 200.07 13.129 199.667 12.9634C199.315 12.8166 198.956 12.752 198.614 12.734C198.015 12.704 197.462 12.8026 196.939 12.9044C196.158 13.0634 195.435 13.2285 194.87 13.2009C194.587 13.1891 194.348 13.1387 194.127 13.0385C193.906 12.9364 193.69 12.7835 193.455 12.5049C193.109 12.0923 192.494 12.0388 192.081 12.3847C191.669 12.7309 191.615 13.3458 191.961 13.7584C192.309 14.1742 192.706 14.4966 193.129 14.7196C193.499 14.9155 193.884 15.0345 194.258 15.0957C194.915 15.2028 195.534 15.1442 196.099 15.0541C196.942 14.9137 197.696 14.7078 198.239 14.683C198.509 14.6673 198.714 14.6916 198.862 14.7425C199.011 14.7965 199.122 14.8618 199.266 15.0298C199.612 15.4421 200.228 15.4959 200.64 15.15C201.052 14.8038 201.106 14.1886 200.76 13.7763Z" fill="#E85BF4"/>
<path d="M193.472 5.08926C193.165 4.71992 192.782 4.44227 192.38 4.27665C192.027 4.12984 191.668 4.06544 191.327 4.04722C190.728 4.01754 190.175 4.11615 189.652 4.21795C188.871 4.37715 188.147 4.5417 187.582 4.51415C187.299 4.50238 187.061 4.4522 186.84 4.35173C186.619 4.24991 186.403 4.09674 186.168 3.81815C185.822 3.40585 185.206 3.35201 184.794 3.69797C184.381 4.04418 184.328 4.65932 184.674 5.07162C185.022 5.4877 185.419 5.81009 185.842 6.03312C186.212 6.22906 186.597 6.348 186.971 6.40925C187.627 6.51599 188.247 6.45776 188.811 6.36736C189.655 6.22722 190.409 6.02132 190.951 5.99621C191.222 5.98086 191.427 6.00513 191.575 6.05601C191.724 6.10974 191.834 6.17478 191.979 6.34273C192.325 6.75532 192.94 6.80887 193.352 6.46291C193.765 6.1167 193.819 5.50185 193.472 5.08926Z" fill="#E85BF4"/>
<path d="M46.1433 150.42C44.6941 150.42 43.3918 149.838 42.4425 148.895C41.4948 147.949 40.9125 146.655 40.9121 145.217C40.9125 143.778 41.4948 142.484 42.4425 141.539C43.3918 140.596 44.6941 140.014 46.1433 140.014C46.6816 140.014 47.1184 139.578 47.1184 139.039C47.1184 138.5 46.6816 138.064 46.1433 138.064C44.1644 138.064 42.3637 138.865 41.067 140.158C39.7682 141.448 38.9613 143.243 38.9621 145.217C38.9613 147.19 39.7682 148.985 41.0666 150.276C42.3637 151.569 44.1644 152.371 46.1433 152.37C46.6816 152.37 47.1184 151.934 47.1184 151.395C47.1184 150.857 46.6816 150.42 46.1433 150.42Z" fill="#20114A"/>
<path d="M258.039 255.433L250.542 252.225C250.047 252.013 249.473 252.243 249.262 252.738C249.05 253.233 249.28 253.806 249.775 254.018L257.272 257.226C257.767 257.438 258.341 257.208 258.552 256.713C258.764 256.218 258.534 255.645 258.039 255.433Z" fill="#E85BF4"/>
<path d="M253.199 258.859L256.408 251.361C256.619 250.866 256.39 250.293 255.895 250.081C255.4 249.869 254.827 250.099 254.615 250.594L251.406 258.092C251.195 258.587 251.424 259.16 251.919 259.372C252.414 259.584 252.987 259.354 253.199 258.859Z" fill="#E85BF4"/>
<path d="M234.611 267.629L239.396 254.483C239.58 253.977 239.319 253.417 238.813 253.233C238.307 253.049 237.748 253.31 237.563 253.816L232.779 266.962C232.595 267.468 232.855 268.027 233.361 268.211C233.867 268.395 234.427 268.135 234.611 267.629Z" fill="#20114A"/>
<path d="M129.572 274.339H128.597C128.597 275.787 128.013 277.088 127.065 278.038C126.115 278.986 124.814 279.57 123.366 279.57C121.919 279.57 120.617 278.986 119.667 278.038C118.719 277.088 118.135 275.787 118.134 274.339C118.135 272.891 118.719 271.59 119.667 270.64C120.617 269.692 121.919 269.108 123.366 269.108C124.814 269.108 126.116 269.692 127.065 270.64C128.013 271.59 128.597 272.891 128.597 274.339H129.572H130.547C130.547 270.372 127.332 267.158 123.366 267.158C121.386 267.157 119.585 267.963 118.288 269.261C116.99 270.557 116.184 272.359 116.184 274.339C116.185 278.306 119.4 281.52 123.366 281.521C127.332 281.52 130.547 278.306 130.547 274.339H129.572Z" fill="#20114A"/>
<path d="M28.6268 212.361V213.336H39.9972V223.732H29.6018V212.361H28.6268V213.336V212.361H27.6517V224.707C27.6517 224.964 27.7559 225.215 27.9376 225.396C28.119 225.578 28.3701 225.682 28.6268 225.682H40.9722C41.2288 225.682 41.48 225.578 41.6613 225.396C41.8431 225.215 41.9472 224.964 41.9472 224.707V212.361C41.9472 212.105 41.8431 211.853 41.6613 211.672C41.48 211.49 41.2288 211.386 40.9722 211.386H28.6268C28.3701 211.386 28.119 211.49 27.9376 211.672C27.7559 211.853 27.6517 212.105 27.6517 212.361H28.6268Z" fill="#E85BF4"/>
<path d="M83.8544 26.1587L83.3357 25.3331C83.0892 25.4875 82.8228 25.5585 82.5549 25.5589C82.3103 25.5593 82.0673 25.4977 81.8524 25.3818C81.6375 25.2652 81.4515 25.0967 81.3103 24.8721L81.3095 24.8713C81.1551 24.6248 81.0837 24.3585 81.0833 24.0905C81.0833 23.8468 81.1446 23.6038 81.2604 23.3893C81.377 23.1744 81.5455 22.988 81.7702 22.8464C82.0155 22.6927 82.2811 22.6217 82.549 22.621C82.7935 22.621 83.0373 22.6822 83.2522 22.7984C83.4675 22.9154 83.6535 23.0835 83.7947 23.3078L83.7955 23.3085C83.9495 23.5543 84.0205 23.8198 84.0209 24.0878C84.0213 24.3319 83.9597 24.5757 83.8435 24.7906C83.7268 25.0059 83.5587 25.1923 83.3349 25.3335L83.3357 25.3331L83.8544 26.1587L84.3739 26.9836C84.8875 26.6607 85.29 26.2176 85.5599 25.7169C85.8302 25.2153 85.971 24.6556 85.971 24.0878C85.9717 23.4665 85.8001 22.832 85.4456 22.2696L85.446 22.2703C85.1231 21.7559 84.68 21.353 84.1785 21.0828C83.6773 20.8121 83.1173 20.6713 82.549 20.6709C81.9277 20.6705 81.294 20.8417 80.7316 21.1959C80.2179 21.5184 79.815 21.9611 79.5451 22.4622C79.2745 22.9634 79.1333 23.523 79.1333 24.0905C79.1329 24.7126 79.3045 25.3471 79.6594 25.9103L79.6586 25.9091C79.9816 26.4236 80.4242 26.8268 80.9254 27.0971C81.4269 27.3682 81.9866 27.509 82.5549 27.509C83.1761 27.5097 83.8103 27.3381 84.3731 26.9844L84.3739 26.9836L83.8544 26.1587Z" fill="#20114A"/>
<path d="M76.5478 57.0766L77.4317 57.4879L80.8849 50.0701C81.0321 49.7542 80.9996 49.3838 80.7996 49.0986C80.5992 48.8134 80.2621 48.6565 79.9153 48.6872L71.7679 49.4078L71.7683 49.4079L63.6173 50.1262C63.2702 50.1565 62.966 50.3702 62.8188 50.686C62.672 51.0019 62.7046 51.372 62.9046 51.6571L67.602 58.3538L67.6017 58.3533L72.2975 65.0528C72.4975 65.338 72.8345 65.4952 73.1813 65.4645C73.5285 65.4338 73.833 65.2206 73.9798 64.9047L77.4317 57.4879L76.5478 57.0766L75.6639 56.6653L72.9248 62.5504L69.1986 57.2341L69.1983 57.2337L65.4712 51.9204L71.9394 51.3505L71.9398 51.3505L78.404 50.7787L75.6639 56.6653L76.5478 57.0766Z" fill="#20114A"/>
</g>
<defs>
<filter id="filter0_d_177_539" x="0" y="0" width="278" height="351.134" filterUnits="userSpaceOnUse" color-interpolation-filters="sRGB">
<feFlood flood-opacity="0" result="BackgroundImageFix"/>
<feColorMatrix in="SourceAlpha" type="matrix" values="0 0 0 0 0 0 0 0 0 0 0 0 0 0 0 0 0 0 127 0" result="hardAlpha"/>
<feOffset dy="4"/>
<feGaussianBlur stdDeviation="2"/>
<feComposite in2="hardAlpha" operator="out"/>
<feColorMatrix type="matrix" values="0 0 0 0 0 0 0 0 0 0 0 0 0 0 0 0 0 0 0.25 0"/>
<feBlend mode="normal" in2="BackgroundImageFix" result="effect1_dropShadow_177_539"/>
<feBlend mode="normal" in="SourceGraphic" in2="effect1_dropShadow_177_539" result="shape"/>
</filter>
<clipPath id="clip0_177_539">
<rect width="270" height="343.134" fill="white" transform="translate(4)"/>
</clipPath>
</defs>
</svg>
