<svg width="270" height="344" viewBox="0 0 270 344" fill="none" xmlns="http://www.w3.org/2000/svg">
  <g clip-path="url(#clip0_177_539)">
    <path
      d="M136.357 163.799C137.033 164.189 137.912 164.654 138.971 165.159C142.007 166.608 146.464 168.364 151.749 169.646C162.241 172.189 175.863 172.832 188.145 165.674C188.164 165.604 188.186 165.523 188.21 165.434C188.319 165.03 188.476 164.432 188.67 163.658C189.059 162.109 189.594 159.855 190.179 157.043C191.35 151.417 192.718 143.563 193.512 134.655C195.102 116.798 194.362 94.8776 185.252 78.1325C177.734 64.3151 166.539 55.9938 154.758 52.1238C153.879 54.193 152.231 57.5669 149.787 60.5161C146.986 63.8955 142.994 66.8823 137.799 66.4275C134.748 66.1656 132.719 64.9499 131.497 63.1616C130.306 61.4183 129.975 59.2649 130.007 57.2746C130.039 55.2717 130.442 53.3237 130.828 51.8922C131.022 51.1727 131.214 50.5749 131.359 50.155C131.374 50.11 131.389 50.067 131.403 50.0261C128.697 50.5318 125.036 51.8379 121.623 53.3416C119.71 54.1844 117.904 55.0763 116.427 55.8988C114.927 56.7338 113.834 57.46 113.293 57.9641L113.245 58.0088L136.357 163.799ZM136.357 163.799C159.252 158.428 171.958 148.476 178.954 139.681C182.546 135.166 184.618 130.974 185.794 127.898C186.382 126.36 186.746 125.101 186.964 124.22C187.073 123.779 187.145 123.432 187.191 123.192C187.214 123.072 187.23 122.979 187.241 122.913C187.246 122.881 187.25 122.855 187.253 122.837L187.256 122.814L187.257 122.808L187.258 122.805C187.258 122.804 187.258 122.803 186.305 122.67L187.258 122.803L187.294 122.546L187.196 122.305C182.252 110.225 172.992 106.105 165.032 105.032C161.069 104.497 157.422 104.714 154.772 105.061C153.444 105.235 152.362 105.443 151.607 105.608C151.23 105.691 150.935 105.763 150.731 105.815C150.629 105.841 150.551 105.862 150.496 105.876L150.433 105.894L150.416 105.899L150.41 105.9L150.409 105.901C150.408 105.901 150.408 105.901 150.674 106.826L150.408 105.901L149.728 106.097L149.712 106.804C149.346 122.895 139.631 131.384 129.876 135.901C124.99 138.163 120.115 139.413 116.455 140.097C114.627 140.438 113.107 140.637 112.048 140.751C111.725 140.785 111.445 140.812 111.212 140.832C110.089 135.491 109.535 127.104 109.266 119.843C109.126 116.041 109.064 112.574 109.038 110.056C109.024 108.798 109.02 107.778 109.019 107.072C109.018 106.72 109.019 106.446 109.019 106.26L109.02 106.05L109.02 105.996L109.02 105.983L109.02 105.98L109.02 105.979C109.02 105.979 109.02 105.979 108.058 105.973L109.02 105.979L109.023 105.474L108.609 105.185C102.577 100.967 98.8087 99.6478 96.4515 99.4706C95.8224 99.4233 95.2886 99.457 94.8383 99.5415C96.8316 84.045 101.344 73.733 105.386 67.2712C107.482 63.9198 109.456 61.5982 110.894 60.1225C111.613 59.3845 112.198 58.8578 112.598 58.5195C112.798 58.3503 112.952 58.2282 113.053 58.1503C113.104 58.1114 113.141 58.0835 113.164 58.0664L113.189 58.0486L113.191 58.0466L113.192 58.046L113.193 58.0457L136.357 163.799Z"
      fill="#D390F2" fill-opacity="0.88" stroke="#20114A" stroke-width="1.92471" />
    <path
      d="M191.707 151.997L253.277 192.739C265.217 200.639 263.681 218.618 250.587 224.378L178.534 256.089C164.906 262.085 149.139 260.543 136.932 252.019L109.261 232.674"
      stroke="#20114A" stroke-width="1.6206" />
    <path
      d="M191.707 165.136L189.636 163.763L253.288 205.87C265.228 213.77 263.692 231.749 250.599 237.51L178.545 269.221C164.918 275.217 149.15 273.674 136.943 265.151L101.761 240.094"
      stroke="#20114A" stroke-width="1.6206" />
    <path
      d="M245.287 222.13L179.062 251.28C166.537 256.788 152.047 255.37 140.828 247.537L115.451 229.709C118.945 227.031 122.86 224.953 127.036 223.56C137.497 220.007 147.706 215.75 157.593 210.82C172.789 203.303 183.838 189.398 187.727 172.896C189.055 167.257 190.221 161.552 191.175 155.818L249.459 194.346C260.429 201.604 257.317 216.841 245.287 222.13Z"
      fill="#27B7D7" />
    <path
      d="M74.6412 306.61C74.6412 306.61 86.253 301.796 88.4787 298.167C88.4787 298.167 88.8971 306.406 86.7245 309.22C84.5515 312.034 71.5667 319.474 70.8688 318.542C70.1709 317.61 74.6412 306.61 74.6412 306.61Z"
      fill="#D9D9D9" />
    <path
      d="M38.8975 326.241C38.8975 326.241 41.01 329.108 48.506 326.241C56.0016 323.374 72.31 312.815 72.31 312.815C72.31 312.815 67.7604 325.03 66.1117 326.373C64.4633 327.716 33.3181 342.972 33.3181 342.972C33.3181 342.972 19.3941 344.953 24.6416 335.05L38.8975 326.241Z"
      fill="#D9D9D9" />
    <path d="M83.7212 166.638C66.5567 173.319 48.3925 189.016 53.6173 232.486L55.0697 243.78"
      stroke="#20114A" stroke-width="1.6206" />
    <path
      d="M83.695 138.251C86.5016 134.244 89.0368 129.913 90.5908 125.251C92.1452 120.588 92.2245 115.537 92.6584 110.633C93.8124 97.4818 95.6008 86.606 100.675 74.3568C105.07 63.7563 118.345 50.1001 131.552 48.8064L132.74 48.7043"
      stroke="#20114A" stroke-width="1.6206" />
    <path d="M116.892 165.676C116.828 165.491 116.764 165.318 116.696 165.136" stroke="#20114A"
      stroke-width="1.6206" />
    <path
      d="M110.453 141.038C109.804 137.224 109.321 133.527 108.944 130.019C108.945 129.953 108.937 129.887 108.921 129.823C106.944 110.233 108.944 95.9802 108.944 95.9802"
      stroke="#20114A" stroke-width="1.6206" />
    <path
      d="M156.593 22.1386L153.575 23.3157C153.575 23.4101 153.575 24.5868 153.447 26.2355C153.307 28.2045 152.994 30.1573 152.511 32.0716C152.779 30.7663 153.168 27.6652 151.463 25.5076C151.436 25.4633 151.406 25.4218 151.372 25.3829C150.241 24.021 148.845 24.5606 147.724 25.496C146.951 26.1508 146.275 26.913 145.717 27.7595C145.913 25.2393 145.461 22.711 144.405 20.4148C143.716 18.8481 142.802 17.3904 141.692 16.0877C143.401 21.9727 141.209 25.8244 141.209 25.8244C135.418 27.1863 131.401 26.8957 128.406 26.3787C125.882 24.0248 126.757 15.5482 126.757 15.5482C124.218 17.623 124.83 25.6508 124.83 25.6508C124.505 23.5559 124.545 21.4211 124.947 19.3395C123.685 21.1231 122.957 23.228 122.845 25.4094L122.8 25.3867C122.625 25.3417 122.452 25.2878 122.283 25.2247C121.972 25.0611 121.671 24.8798 121.382 24.6811L119.71 23.5494C122.234 10.6742 131.058 2.57862 144.691 4.95524C145.581 5.10864 146.457 5.33576 147.309 5.63428C156.292 10.3159 156.593 22.1386 156.593 22.1386Z"
      fill="#D390F2" fill-opacity="0.88" />
    <path
      d="M78.791 147.534L75.3543 137.19C75.1995 136.7 74.803 136.325 74.3057 136.198C74.2753 136.198 74.2414 136.198 74.2075 136.175C74.1737 136.153 74.166 136.175 74.1432 136.175C74.0643 136.17 73.9846 136.17 73.9057 136.175C73.5246 136.177 73.1578 136.322 72.8795 136.583C72.3155 137.104 71.9941 137.836 71.993 138.605C71.9934 138.902 72.0403 139.197 72.1327 139.48C72.8872 141.664 74.2302 145.606 74.8677 147.402"
      fill="#79F45B" />
    <path
      d="M78.0137 147.534L74.309 136.198C74.279 136.198 74.2451 136.198 74.2112 136.175C74.177 136.153 74.1697 136.175 74.147 136.175L72.2042 135.798C71.1667 135.606 70.1293 135.398 69.0919 135.206C67.847 134.957 66.5944 134.749 65.3534 134.451C65.0604 134.369 64.7594 134.318 64.4557 134.301C64.073 134.299 63.7054 134.447 63.4294 134.712C62.8601 135.232 62.5383 135.97 62.5429 136.741C62.541 137.035 62.5883 137.327 62.6826 137.605C63.5164 140.05 65.1043 144.675 65.6101 146.078L78.0137 147.534Z"
      fill="#79F45B" />
    <path
      d="M151.259 95.9767C150.882 100.175 150.686 105.257 150.554 111.643C150.554 125.224 135.54 136.47 122.197 139.042L97.7285 144.569C94.4958 145.195 91.6322 143.177 89.3841 141.838C87.0714 140.461 84.7025 138.82 83.0349 137.602C80.6356 135.847 76.0144 137.258 76.9613 141.442C77.3751 143.054 78.5176 144.381 80.0509 145.029C80.477 145.22 80.9154 145.382 81.3639 145.512C81.7069 145.598 81.9498 145.904 81.9548 146.258C81.9602 146.612 81.7269 146.925 81.3866 147.021C79.2664 147.753 75.3846 148.187 69.1224 145.889C61.0983 142.936 60.4758 161.247 71.4463 164.435H71.4875C81.5941 167.49 92.4698 167.098 102.916 166.66C114.778 166.211 126.581 164.771 138.203 162.356C144.114 161.104 150.188 159.802 155.597 157.128C164.915 152.521 171.63 147.24 178.017 139.02C185.185 129.804 188.244 117.713 189.972 106.377C191.949 93.4076 189.217 82.456 182.265 71.2935L182.008 70.8862"
      stroke="#20114A" stroke-width="1.6206" />
    <path
      d="M78.791 147.534L75.3543 137.19C75.1995 136.7 74.803 136.325 74.3057 136.198C74.2753 136.198 74.2414 136.198 74.2075 136.175C74.1737 136.153 74.166 136.175 74.1432 136.175C74.0643 136.17 73.9846 136.17 73.9057 136.175C73.5246 136.177 73.1578 136.322 72.8795 136.583C72.3155 137.104 71.9941 137.836 71.993 138.605C71.9934 138.902 72.0403 139.197 72.1327 139.48C72.8872 141.664 74.2302 145.606 74.8677 147.402"
      stroke="#20114A" stroke-width="1.6206" />
    <path
      d="M74.3094 136.198C74.279 136.198 74.2451 136.198 74.2112 136.175C74.1774 136.153 74.1697 136.175 74.147 136.175L72.2042 135.798C71.1667 135.606 70.1293 135.398 69.0919 135.206C67.847 134.957 66.5948 134.749 65.3537 134.451C65.0608 134.369 64.7598 134.318 64.4557 134.301C64.0734 134.299 63.7054 134.447 63.4298 134.712C62.8605 135.232 62.5383 135.97 62.5433 136.741C62.5414 137.035 62.5883 137.327 62.6826 137.605C63.5164 140.05 65.1047 144.675 65.6101 146.078"
      stroke="#20114A" stroke-width="1.6206" />
    <path
      d="M121.672 25.0398C121.672 29.9439 122.626 34.6333 124.981 38.9639C126.867 42.4422 129.636 45.9467 133.597 47.0973C134.475 47.3506 135.384 47.4776 136.298 47.4745C143.02 47.4445 144.069 39.4809 144.069 39.4809"
      stroke="#20114A" stroke-width="1.6206" />
    <path
      d="M153.221 27.884V27.9064C152.909 30.34 152.374 32.7393 151.621 35.074C150.723 37.8594 150.51 40.8204 151.003 43.7055L152.048 49.7829C152.145 50.3353 152.549 50.7838 153.089 50.937C166.353 54.7887 178.126 63.2882 184.977 75.5598C193.522 90.8835 195.08 109.338 194.389 126.54C193.782 141.453 191.372 156.278 187.95 170.791C183.715 188.749 171.69 203.882 155.152 212.065C144.404 217.432 133.304 222.064 121.929 225.929C109.734 229.967 100.006 239.282 95.4427 251.29L68.7112 322.37C67.7288 324.995 65.791 327.15 63.2862 328.406L37.6715 341.274C34.4368 342.893 30.7471 343.361 27.2107 342.602C25.3341 342.197 23.8967 340.685 23.5868 338.791C23.277 336.896 24.1577 335.005 25.8072 334.023L38.8902 326.241L56.8808 234.526C59.443 217.967 69.1196 203.358 83.3671 194.538C84.3055 193.966 85.2837 193.462 86.2945 193.029L125.294 176.095"
      stroke="#20114A" stroke-width="1.6206" />
    <path
      d="M142.5 4.06872C140.415 3.5718 138.257 3.46182 136.132 3.74429C136.045 3.74622 135.958 3.75376 135.871 3.76693"
      stroke="#20114A" stroke-width="1.6206" />
    <path
      d="M133.053 48.9265C133.053 48.9265 126.154 64.7441 138.493 65.5252C149.565 66.2342 153.629 51.19 153.629 51.19"
      stroke="#20114A" stroke-width="1.6206" />
    <path fill-rule="evenodd" clip-rule="evenodd"
      d="M152.353 32.6484C152.432 32.3581 153.621 28.0687 151.35 25.3676C149.079 22.6665 146.001 27.2992 145.691 27.7631C146.295 21.1125 141.673 16.0686 141.673 16.0686C143.379 21.9574 141.183 25.8053 141.183 25.8053C132.744 27.782 128.1 26.2768 124.807 25.6278C124.483 23.5341 124.524 21.4004 124.928 19.3205C123.663 21.0994 122.934 23.2031 122.826 25.3826H122.774C121.52 25.0497 120.331 24.5077 119.258 23.7793L117.586 22.6476C120.114 9.77623 128.934 1.67306 142.568 4.04969C156.201 6.42632 156.582 22.1045 156.582 22.1045L153.545 23.2855C153.545 23.2855 153.572 28.461 152.353 32.6484Z"
      stroke="#20114A" stroke-width="1.6206" />
    <path
      d="M126.961 31.9773V38.2357C126.962 38.39 127.037 38.5348 127.162 38.6256C127.287 38.7165 127.447 38.7426 127.595 38.6957C128.087 38.5328 128.539 38.268 128.923 37.9189"
      stroke="#20114A" stroke-width="1.6206" />
    <path d="M132.499 46.7009C132.499 46.7009 133.348 49.5757 135.845 58.8936" stroke="#20114A"
      stroke-width="1.6206" />
    <path
      d="M69.975 319.013L84.6875 311.072C86.3993 310.144 87.5418 308.429 87.7393 306.492C90.1837 282.481 89.4369 267.301 89.4369 267.301"
      stroke="#20114A" stroke-width="1.6206" />
    <path d="M56.6206 195.874L0 156.305" stroke="#20114A" stroke-width="1.6206" />
    <path d="M53.414 206.776L0 169.445" stroke="#20114A" stroke-width="1.6206" />
    <path
      d="M270 131.565V163.959C270 166.994 268.21 169.744 265.435 170.972L225.259 188.763L212.976 207.429C212.327 208.379 211.139 208.8 210.037 208.469C208.935 208.139 208.174 207.134 208.155 205.984V196.342L204.035 198.164C202.174 198.977 200.028 198.801 198.325 197.693C196.622 196.585 195.591 194.695 195.581 192.664V165.612C195.582 158.716 199.677 152.479 206.004 149.737L261.217 125.801C263.16 124.958 265.395 125.15 267.165 126.312C268.935 127.474 270.001 129.448 270 131.565Z"
      fill="#E7F0FA" fill-opacity="0.91" />
    <path
      d="M220.716 173.905C222.695 170.088 222.159 165.884 219.52 164.515C216.88 163.147 213.136 165.133 211.157 168.951C209.178 172.769 209.714 176.973 212.353 178.341C214.993 179.709 218.737 177.723 220.716 173.905Z"
      fill="#D390F2" fill-opacity="0.88" />
    <path
      d="M237.874 166.561C239.853 162.743 239.318 158.539 236.678 157.171C234.039 155.803 230.295 157.788 228.316 161.606C226.337 165.424 226.872 169.628 229.512 170.996C232.151 172.365 235.895 170.379 237.874 166.561Z"
      fill="#D390F2" fill-opacity="0.88" />
    <path
      d="M254.456 158.631C256.435 154.813 255.899 150.609 253.259 149.24C250.62 147.872 246.876 149.858 244.897 153.676C242.918 157.494 243.453 161.698 246.093 163.066C248.733 164.434 252.477 162.448 254.456 158.631Z"
      fill="#D390F2" fill-opacity="0.88" />
    <path
      d="M222.4 118.473L223.342 118.725L225.455 110.82C225.545 110.484 225.448 110.124 225.202 109.878C224.955 109.632 224.596 109.536 224.26 109.627L216.361 111.751H216.362L208.459 113.874C208.123 113.964 207.86 114.227 207.77 114.564C207.68 114.9 207.777 115.259 208.023 115.505L213.812 121.285L213.812 121.284L219.599 127.066C219.846 127.313 220.205 127.409 220.541 127.318C220.878 127.228 221.141 126.965 221.23 126.628L223.342 118.725L222.4 118.473L221.458 118.222L219.783 124.493L215.19 119.905L215.19 119.904L210.596 115.319L216.867 113.634H216.868L223.135 111.949L221.458 118.222L222.4 118.473Z"
      fill="#79F45B" />
    <path
      d="M224.635 73.8732H223.66C223.66 75.3213 223.076 76.6228 222.128 77.5724C221.178 78.5205 219.877 79.104 218.429 79.1048C216.981 79.104 215.68 78.5205 214.73 77.5724C213.782 76.6228 213.198 75.3209 213.197 73.8732C213.198 72.4254 213.782 71.124 214.73 70.1743C215.68 69.2262 216.981 68.6427 218.429 68.642C219.877 68.6427 221.178 69.2262 222.128 70.1743C223.076 71.124 223.66 72.4254 223.66 73.8732H224.635H225.61C225.609 69.9068 222.395 66.6927 218.429 66.6919C214.462 66.6927 211.248 69.9068 211.247 73.8732C211.248 77.8404 214.462 81.0541 218.429 81.0548C222.395 81.0541 225.609 77.84 225.61 73.8732H224.635Z"
      fill="#20114A" />
    <path
      d="M61.3849 116.76C61.5078 116.909 61.5556 117.021 61.5864 117.149C61.6112 117.261 61.6176 117.394 61.5966 117.565C61.5626 117.862 61.4335 118.261 61.2553 118.716C60.994 119.402 60.6226 120.202 60.4899 121.145C60.4254 121.617 60.4294 122.131 60.5652 122.655C60.6996 123.179 60.9666 123.699 61.3682 124.175C61.7144 124.588 62.3292 124.641 62.7418 124.295C63.1541 123.949 63.2082 123.334 62.862 122.921C62.6582 122.678 62.5469 122.464 62.4798 122.259C62.4222 122.078 62.3977 121.9 62.3997 121.703C62.4025 121.361 62.4972 120.959 62.6525 120.515C62.8805 119.846 63.2446 119.114 63.4462 118.278C63.5443 117.86 63.5989 117.4 63.525 116.913C63.4534 116.427 63.2358 115.928 62.8787 115.507C62.5325 115.094 61.9176 115.04 61.505 115.387C61.0927 115.733 61.0386 116.348 61.3849 116.76Z"
      fill="#79F45B" />
    <path
      d="M54.0964 108.074C54.2196 108.223 54.2674 108.335 54.298 108.463C54.323 108.575 54.3291 108.708 54.3084 108.879C54.2744 109.176 54.1453 109.575 53.9671 110.03C53.7058 110.716 53.3341 111.515 53.2017 112.459C53.1372 112.931 53.1412 113.445 53.2767 113.969C53.4111 114.492 53.6782 115.013 54.0797 115.489C54.4257 115.901 55.0408 115.955 55.4534 115.609C55.8657 115.263 55.9195 114.648 55.5736 114.235C55.3698 113.992 55.2584 113.778 55.1914 113.572C55.1338 113.392 55.1095 113.214 55.1115 113.017C55.114 112.675 55.209 112.274 55.3644 111.83C55.5923 111.16 55.9562 110.428 56.158 109.592C56.2559 109.173 56.3107 108.714 56.2368 108.227C56.165 107.741 55.9476 107.242 55.5902 106.821C55.2443 106.408 54.6292 106.354 54.2166 106.7C53.8043 107.046 53.7504 107.662 54.0964 108.074Z"
      fill="#79F45B" />
    <path
      d="M62.8787 115.507C62.5714 115.138 62.1885 114.86 61.7858 114.694C61.4335 114.547 61.0743 114.483 60.7328 114.465C60.1339 114.435 59.5807 114.533 59.0578 114.635C58.2767 114.794 57.5533 114.959 56.9885 114.932C56.7052 114.92 56.4669 114.869 56.2459 114.769C56.0247 114.667 55.8089 114.514 55.5736 114.236C55.2274 113.823 54.6122 113.769 54.2 114.115C53.7874 114.462 53.7336 115.077 54.0798 115.489C54.4276 115.905 54.8249 116.227 55.2478 116.45C55.6174 116.646 56.0023 116.765 56.3765 116.826C57.0335 116.933 57.6523 116.875 58.2172 116.785C59.0611 116.644 59.8149 116.438 60.3572 116.414C60.6276 116.398 60.8323 116.422 60.9804 116.473C61.1296 116.527 61.2404 116.593 61.3849 116.761C61.7309 117.173 62.3462 117.227 62.7585 116.881C63.1711 116.534 63.2247 115.919 62.8787 115.507Z"
      fill="#79F45B" />
    <path
      d="M55.5902 106.821C55.2829 106.452 54.9002 106.174 54.4975 106.008C54.1452 105.862 53.7857 105.797 53.4446 105.779C52.8459 105.749 52.2927 105.848 51.7698 105.95C50.9884 106.109 50.2651 106.273 49.7003 106.246C49.417 106.234 49.1789 106.184 48.9576 106.083C48.7367 105.982 48.5206 105.828 48.2853 105.55C47.9394 105.138 47.324 105.084 46.9117 105.43C46.4991 105.776 46.4456 106.391 46.7915 106.803C47.1396 107.219 47.5369 107.542 47.9598 107.765C48.3294 107.961 48.7143 108.08 49.0885 108.141C49.7452 108.248 50.3643 108.189 50.9289 108.099C51.7731 107.959 52.5269 107.753 53.0689 107.728C53.3396 107.713 53.5443 107.737 53.6924 107.788C53.8413 107.841 53.9519 107.906 54.0964 108.074C54.4426 108.487 55.0577 108.541 55.47 108.195C55.8826 107.848 55.9364 107.234 55.5902 106.821Z"
      fill="#79F45B" />
    <path
      d="M185.126 294.667C185.249 294.816 185.297 294.928 185.327 295.056C185.352 295.168 185.359 295.301 185.338 295.472C185.304 295.769 185.175 296.168 184.996 296.623C184.735 297.309 184.364 298.109 184.231 299.052C184.166 299.524 184.17 300.038 184.306 300.562C184.441 301.086 184.708 301.606 185.109 302.082C185.455 302.495 186.07 302.548 186.483 302.202C186.895 301.856 186.949 301.241 186.603 300.828C186.399 300.585 186.288 300.371 186.221 300.166C186.163 299.985 186.139 299.807 186.141 299.61C186.144 299.268 186.238 298.866 186.394 298.422C186.622 297.753 186.986 297.021 187.187 296.185C187.285 295.766 187.34 295.307 187.266 294.82C187.194 294.334 186.977 293.835 186.62 293.414C186.274 293.001 185.659 292.947 185.246 293.294C184.834 293.64 184.78 294.255 185.126 294.667Z"
      fill="#79F45B" />
    <path
      d="M177.838 285.981C177.961 286.13 178.008 286.242 178.039 286.37C178.064 286.483 178.07 286.615 178.049 286.786C178.015 287.083 177.886 287.482 177.708 287.937C177.447 288.623 177.075 289.423 176.943 290.367C176.878 290.838 176.882 291.353 177.018 291.876C177.152 292.4 177.419 292.92 177.821 293.396C178.167 293.808 178.782 293.862 179.194 293.516C179.607 293.17 179.661 292.555 179.315 292.142C179.111 291.899 179 291.685 178.933 291.479C178.875 291.299 178.851 291.121 178.853 290.924C178.855 290.582 178.95 290.181 179.105 289.737C179.333 289.067 179.697 288.335 179.899 287.5C179.997 287.08 180.052 286.622 179.978 286.134C179.906 285.648 179.689 285.149 179.331 284.728C178.985 284.316 178.37 284.261 177.958 284.608C177.545 284.954 177.492 285.569 177.838 285.981Z"
      fill="#79F45B" />
    <path
      d="M186.62 293.414C186.312 293.045 185.93 292.767 185.527 292.601C185.175 292.454 184.815 292.39 184.474 292.372C183.875 292.342 183.322 292.44 182.799 292.542C182.018 292.701 181.294 292.866 180.73 292.839C180.446 292.827 180.208 292.776 179.987 292.676C179.766 292.574 179.55 292.421 179.315 292.143C178.968 291.73 178.353 291.676 177.941 292.022C177.528 292.369 177.475 292.983 177.821 293.396C178.169 293.812 178.566 294.134 178.989 294.357C179.358 294.553 179.743 294.672 180.118 294.733C180.775 294.84 181.393 294.782 181.958 294.692C182.802 294.551 183.556 294.345 184.098 294.321C184.369 294.305 184.573 294.329 184.721 294.38C184.871 294.434 184.981 294.5 185.126 294.667C185.472 295.08 186.087 295.134 186.5 294.788C186.912 294.441 186.966 293.826 186.62 293.414Z"
      fill="#79F45B" />
    <path
      d="M179.332 284.728C179.024 284.358 178.642 284.081 178.239 283.915C177.887 283.768 177.527 283.704 177.186 283.686C176.587 283.656 176.034 283.755 175.511 283.856C174.73 284.016 174.006 284.18 173.442 284.153C173.158 284.141 172.92 284.091 172.699 283.99C172.478 283.888 172.262 283.735 172.027 283.457C171.681 283.044 171.065 282.99 170.653 283.336C170.24 283.683 170.187 284.298 170.533 284.71C170.881 285.126 171.278 285.449 171.701 285.672C172.071 285.867 172.456 285.986 172.83 286.048C173.487 286.154 174.106 286.096 174.67 286.006C175.514 285.866 176.268 285.66 176.81 285.635C177.081 285.619 177.286 285.644 177.434 285.694C177.583 285.748 177.693 285.813 177.838 285.981C178.184 286.394 178.799 286.447 179.211 286.101C179.624 285.755 179.678 285.14 179.332 284.728Z"
      fill="#79F45B" />
    <path
      d="M195.266 15.0296C195.389 15.1785 195.437 15.2901 195.468 15.4185C195.493 15.5306 195.499 15.6637 195.478 15.8341C195.444 16.1309 195.315 16.5305 195.137 16.9849C194.875 17.671 194.504 18.471 194.371 19.4147C194.307 19.8863 194.311 20.4008 194.447 20.9242C194.581 21.4479 194.848 21.9681 195.25 22.4443C195.596 22.8569 196.211 22.9106 196.623 22.5644C197.035 22.2185 197.09 21.6034 196.743 21.1908C196.54 20.9473 196.428 20.7333 196.361 20.5278C196.304 20.3476 196.279 20.1691 196.281 19.9724C196.284 19.6305 196.379 19.2288 196.534 18.7848C196.762 18.1154 197.126 17.3838 197.328 16.5476C197.426 16.1288 197.48 15.6696 197.406 15.1823C197.335 14.6965 197.117 14.1969 196.76 13.7762C196.414 13.3636 195.799 13.3098 195.386 13.656C194.974 14.0019 194.92 14.617 195.266 15.0296Z"
      fill="#79F45B" />
    <path
      d="M187.978 6.34361C188.101 6.4928 188.149 6.60439 188.179 6.73247C188.204 6.84484 188.211 6.9777 188.19 7.14835C188.156 7.44518 188.027 7.84471 187.849 8.29919C187.587 8.9853 187.216 9.78494 187.083 10.729C187.019 11.2006 187.023 11.715 187.158 12.2382C187.293 12.7618 187.56 13.2821 187.961 13.7582C188.307 14.1705 188.922 14.2246 189.335 13.8784C189.747 13.5324 189.801 12.917 189.455 12.5048C189.251 12.2613 189.14 12.0473 189.073 11.8418C189.015 11.6615 188.991 11.4833 188.993 11.2867C188.995 10.9445 189.09 10.543 189.246 10.099C189.474 9.42967 189.838 8.69772 190.039 7.8619C190.137 7.44275 190.192 6.98386 190.118 6.49653C190.046 6.0105 189.829 5.51118 189.472 5.09013C189.126 4.67784 188.511 4.62375 188.098 4.96996C187.686 5.31591 187.632 5.93131 187.978 6.34361Z"
      fill="#79F45B" />
    <path
      d="M196.76 13.7763C196.453 13.407 196.07 13.129 195.667 12.9634C195.315 12.8166 194.956 12.752 194.614 12.734C194.015 12.704 193.462 12.8026 192.939 12.9044C192.158 13.0634 191.435 13.2285 190.87 13.2009C190.587 13.1891 190.348 13.1387 190.127 13.0385C189.906 12.9364 189.69 12.7835 189.455 12.5049C189.109 12.0923 188.494 12.0388 188.081 12.3847C187.669 12.7309 187.615 13.3458 187.961 13.7584C188.309 14.1742 188.706 14.4966 189.129 14.7196C189.499 14.9155 189.884 15.0345 190.258 15.0957C190.915 15.2028 191.534 15.1442 192.099 15.0541C192.942 14.9137 193.696 14.7078 194.239 14.683C194.509 14.6673 194.714 14.6916 194.862 14.7425C195.011 14.7965 195.122 14.8618 195.266 15.0298C195.612 15.4421 196.228 15.4959 196.64 15.15C197.052 14.8038 197.106 14.1886 196.76 13.7763Z"
      fill="#79F45B" />
    <path
      d="M189.472 5.08926C189.165 4.71992 188.782 4.44227 188.38 4.27665C188.027 4.12984 187.668 4.06544 187.327 4.04722C186.728 4.01754 186.175 4.11615 185.652 4.21795C184.871 4.37715 184.147 4.5417 183.582 4.51415C183.299 4.50238 183.061 4.4522 182.84 4.35173C182.619 4.24991 182.403 4.09674 182.168 3.81815C181.822 3.40585 181.206 3.35201 180.794 3.69797C180.381 4.04418 180.328 4.65932 180.674 5.07162C181.022 5.4877 181.419 5.81009 181.842 6.03312C182.212 6.22906 182.597 6.348 182.971 6.40925C183.627 6.51599 184.247 6.45776 184.811 6.36736C185.655 6.22722 186.409 6.02132 186.951 5.99621C187.222 5.98086 187.427 6.00513 187.575 6.05601C187.724 6.10974 187.834 6.17478 187.979 6.34273C188.325 6.75532 188.94 6.80887 189.352 6.46291C189.765 6.1167 189.819 5.50185 189.472 5.08926Z"
      fill="#79F45B" />
    <path
      d="M42.1433 150.42C40.6941 150.42 39.3918 149.838 38.4425 148.895C37.4948 147.949 36.9125 146.655 36.9121 145.217C36.9125 143.778 37.4948 142.484 38.4425 141.539C39.3918 140.596 40.6941 140.014 42.1433 140.014C42.6816 140.014 43.1184 139.578 43.1184 139.039C43.1184 138.5 42.6816 138.064 42.1433 138.064C40.1644 138.064 38.3637 138.865 37.067 140.158C35.7682 141.448 34.9613 143.243 34.9621 145.217C34.9613 147.19 35.7682 148.985 37.0666 150.276C38.3637 151.569 40.1644 152.371 42.1433 152.37C42.6816 152.37 43.1184 151.934 43.1184 151.395C43.1184 150.857 42.6816 150.42 42.1433 150.42Z"
      fill="#20114A" />
    <path
      d="M254.039 255.433L246.542 252.225C246.047 252.013 245.473 252.243 245.262 252.738C245.05 253.233 245.28 253.806 245.775 254.018L253.272 257.226C253.767 257.438 254.341 257.208 254.552 256.713C254.764 256.218 254.534 255.645 254.039 255.433Z"
      fill="#79F45B" />
    <path
      d="M249.199 258.859L252.408 251.361C252.619 250.866 252.39 250.293 251.895 250.081C251.4 249.869 250.827 250.099 250.615 250.594L247.406 258.092C247.195 258.587 247.424 259.16 247.919 259.372C248.414 259.584 248.987 259.354 249.199 258.859Z"
      fill="#79F45B" />
    <path
      d="M230.611 267.629L235.396 254.483C235.58 253.977 235.319 253.417 234.813 253.233C234.307 253.049 233.748 253.31 233.563 253.816L228.779 266.962C228.595 267.468 228.855 268.027 229.361 268.211C229.867 268.395 230.427 268.135 230.611 267.629Z"
      fill="#20114A" />
    <path
      d="M125.572 274.339H124.597C124.597 275.787 124.013 277.088 123.065 278.038C122.115 278.986 120.814 279.57 119.366 279.57C117.919 279.57 116.617 278.986 115.667 278.038C114.719 277.088 114.135 275.787 114.134 274.339C114.135 272.891 114.719 271.59 115.667 270.64C116.617 269.692 117.919 269.108 119.366 269.108C120.814 269.108 122.116 269.692 123.065 270.64C124.013 271.59 124.597 272.891 124.597 274.339H125.572H126.547C126.547 270.372 123.332 267.158 119.366 267.158C117.386 267.157 115.585 267.963 114.288 269.261C112.99 270.557 112.184 272.359 112.184 274.339C112.185 278.306 115.4 281.52 119.366 281.521C123.332 281.52 126.547 278.306 126.547 274.339H125.572Z"
      fill="#20114A" />
    <path
      d="M24.6268 212.361V213.336H35.9972V223.732H25.6018V212.361H24.6268V213.336V212.361H23.6517V224.707C23.6517 224.964 23.7559 225.215 23.9376 225.396C24.119 225.578 24.3701 225.682 24.6268 225.682H36.9722C37.2288 225.682 37.48 225.578 37.6613 225.396C37.8431 225.215 37.9472 224.964 37.9472 224.707V212.361C37.9472 212.105 37.8431 211.853 37.6613 211.672C37.48 211.49 37.2288 211.386 36.9722 211.386H24.6268C24.3701 211.386 24.119 211.49 23.9376 211.672C23.7559 211.853 23.6517 212.105 23.6517 212.361H24.6268Z"
      fill="#79F45B" />
    <path
      d="M79.8544 26.1587L79.3357 25.3331C79.0892 25.4875 78.8228 25.5585 78.5549 25.5589C78.3103 25.5593 78.0673 25.4977 77.8524 25.3818C77.6375 25.2652 77.4515 25.0967 77.3103 24.8721L77.3095 24.8713C77.1551 24.6248 77.0837 24.3585 77.0833 24.0905C77.0833 23.8468 77.1446 23.6038 77.2604 23.3893C77.377 23.1744 77.5455 22.988 77.7702 22.8464C78.0155 22.6927 78.2811 22.6217 78.549 22.621C78.7935 22.621 79.0373 22.6822 79.2522 22.7984C79.4675 22.9154 79.6535 23.0835 79.7947 23.3078L79.7955 23.3085C79.9495 23.5543 80.0205 23.8198 80.0209 24.0878C80.0213 24.3319 79.9597 24.5757 79.8435 24.7906C79.7268 25.0059 79.5587 25.1923 79.3349 25.3335L79.3357 25.3331L79.8544 26.1587L80.3739 26.9836C80.8875 26.6607 81.29 26.2176 81.5599 25.7169C81.8302 25.2153 81.971 24.6556 81.971 24.0878C81.9717 23.4665 81.8001 22.832 81.4456 22.2696L81.446 22.2703C81.1231 21.7559 80.68 21.353 80.1785 21.0828C79.6773 20.8121 79.1173 20.6713 78.549 20.6709C77.9277 20.6705 77.294 20.8417 76.7316 21.1959C76.2179 21.5184 75.815 21.9611 75.5451 22.4622C75.2745 22.9634 75.1333 23.523 75.1333 24.0905C75.1329 24.7126 75.3045 25.3471 75.6594 25.9103L75.6586 25.9091C75.9816 26.4236 76.4242 26.8268 76.9254 27.0971C77.4269 27.3682 77.9866 27.509 78.5549 27.509C79.1761 27.5097 79.8103 27.3381 80.3731 26.9844L80.3739 26.9836L79.8544 26.1587Z"
      fill="#20114A" />
    <path
      d="M72.5478 57.0766L73.4317 57.4879L76.8849 50.0701C77.0321 49.7542 76.9996 49.3838 76.7996 49.0986C76.5992 48.8134 76.2621 48.6565 75.9153 48.6872L67.7679 49.4078L67.7683 49.4079L59.6173 50.1262C59.2702 50.1565 58.966 50.3702 58.8188 50.686C58.672 51.0019 58.7046 51.372 58.9046 51.6571L63.602 58.3538L63.6017 58.3533L68.2975 65.0528C68.4975 65.338 68.8345 65.4952 69.1813 65.4645C69.5285 65.4338 69.833 65.2206 69.9798 64.9047L73.4317 57.4879L72.5478 57.0766L71.6639 56.6653L68.9248 62.5504L65.1986 57.2341L65.1983 57.2337L61.4712 51.9204L67.9394 51.3505L67.9398 51.3505L74.404 50.7787L71.6639 56.6653L72.5478 57.0766Z"
      fill="#20114A" />
  </g>
  <defs>
    <clipPath id="clip0_177_539">
      <rect width="270" height="343.134" fill="white" />
    </clipPath>
  </defs>
</svg>